/* XPM */
static char *result[] = {
/* columns rows colors chars-per-pixel */
"32 32 211 2 ",
"   c #051114",
".  c #051315",
"X  c #071215",
"o  c #091416",
"O  c #0A1617",
"+  c #0B1617",
"@  c #0C1617",
"#  c #0D1617",
"$  c #0D1618",
"%  c #0C1718",
"&  c #0D1718",
"*  c #0D1819",
"=  c #0F1919",
"-  c #101919",
";  c #131919",
":  c #151A1A",
">  c #23201E",
",  c #25211F",
"<  c #282220",
"1  c #292320",
"2  c #2A2220",
"3  c #2C2521",
"4  c #2D2521",
"5  c #2D2622",
"6  c #2E2622",
"7  c #2F2722",
"8  c #302722",
"9  c #302723",
"0  c #312723",
"q  c #332823",
"w  c #332824",
"e  c #342824",
"r  c #342924",
"t  c #3A2B25",
"y  c #3C2B26",
"u  c #3F2D27",
"i  c #3F372E",
"p  c #432D26",
"a  c #422E28",
"s  c #422F28",
"d  c #463029",
"f  c #473029",
"g  c #473129",
"h  c #4A3129",
"j  c #48312A",
"k  c #49312A",
"l  c #4A322A",
"z  c #4B322A",
"x  c #4C332A",
"c  c #4C332B",
"v  c #40382E",
"b  c #42392F",
"n  c #413A2F",
"m  c #423A2F",
"M  c #433A2F",
"N  c #58372E",
"B  c #5B392E",
"V  c #433A30",
"C  c #423B30",
"Z  c #443A30",
"A  c #443B30",
"S  c #453B30",
"D  c #453C31",
"F  c #463C31",
"G  c #463D31",
"H  c #483D32",
"J  c #493D32",
"K  c #493E32",
"L  c #493F33",
"P  c #4A3E32",
"I  c #4A3F33",
"U  c #4B3F33",
"Y  c #4E3D31",
"T  c #503D32",
"R  c #503E32",
"E  c #513E32",
"W  c #513E33",
"Q  c #523E33",
"!  c #523F33",
"~  c #533F33",
"^  c #5F3B30",
"/  c #613B30",
"(  c #613C31",
")  c #633D31",
"_  c #643D32",
"`  c #653E32",
"'  c #4C4034",
"]  c #5B4335",
"[  c #5F4739",
"{  c #684134",
"}  c #6A4235",
"|  c #6A4335",
" . c #6B4335",
".. c #6C4335",
"X. c #604D3C",
"o. c #624F3E",
"O. c #734335",
"+. c #734436",
"@. c #744436",
"#. c #754436",
"$. c #754536",
"%. c #764436",
"&. c #764537",
"*. c #774537",
"=. c #794436",
"-. c #784637",
";. c #794637",
":. c #7C4637",
">. c #7B4738",
",. c #7C4738",
"<. c #7C4838",
"1. c #7D4838",
"2. c #7E4838",
"3. c #7E4839",
"4. c #7F4839",
"5. c #7F4939",
"6. c #65503F",
"7. c #725844",
"8. c #745B45",
"9. c #804939",
"0. c #814A3A",
"q. c #824A3A",
"w. c #854E3D",
"e. c #8D4E3C",
"r. c #8D4F3D",
"t. c #8E4F3D",
"y. c #8F4F3D",
"u. c #90503E",
"i. c #91503E",
"p. c #91513E",
"a. c #93503E",
"s. c #92513E",
"d. c #93513F",
"f. c #95513E",
"g. c #94513F",
"h. c #95513F",
"j. c #96513F",
"k. c #94523F",
"l. c #95523F",
"z. c #97523F",
"x. c #965340",
"c. c #975340",
"v. c #985340",
"b. c #985440",
"n. c #995440",
"m. c #995441",
"M. c #9A5441",
"N. c #9A5541",
"B. c #9B5541",
"V. c #9C5541",
"C. c #9D5642",
"Z. c #955F48",
"A. c #967054",
"S. c #977054",
"D. c #977155",
"F. c #987154",
"G. c #987155",
"H. c #997255",
"J. c #9B7255",
"K. c #987356",
"L. c #9A7356",
"P. c #9C7356",
"I. c #9D7557",
"U. c #9F7758",
"Y. c #A2614A",
"T. c #B06B50",
"R. c #B16B50",
"E. c #A07758",
"W. c #A07759",
"Q. c #B47D5C",
"!. c #BB8964",
"~. c #BB8965",
"^. c #BC8965",
"/. c #BC8A65",
"(. c #BD8A65",
"). c #BD8A66",
"_. c #BE8A66",
"`. c #BE8B66",
"'. c #BF8C66",
"]. c #C08C67",
"[. c #C18D67",
"{. c #C38E68",
"}. c #C48F68",
"|. c #C48F69",
" X c #CA916A",
".X c #CB936B",
"XX c #CB936C",
"oX c #CC946C",
"OX c #CE956D",
"+X c #D1986E",
"@X c #D2986E",
"#X c #DA986F",
"$X c #E19A70",
"%X c #E19B70",
"&X c #E39C71",
"*X c #E59D72",
"=X c #E8A678",
"-X c #ECA97A",
";X c #F0AC7C",
":X c #F8B17F",
">X c #F9B180",
",X c #F9B280",
"<X c #FAB280",
"1X c #FBB280",
"2X c #FBB381",
"3X c #FCB381",
"4X c #FDB482",
"5X c #FEB582",
"6X c #FFB582",
"7X c #FFB683",
"8X c None",
/* pixels */
"8X8X8X8X8X8X8X8X8X8X8X8X8X8X8X8X8X8X8X8X8X8X8X8X8X8X8X8X8X8X8X8X",
"8X8X8X8X8X8X8X8X8X8X8X8X8X8X8X8X8X8X8X8X8X8X8X8X8X8X8X8X8X8X8X8X",
"8X8X8X8X8X8X8X8X8X8X8X8X8X8X8X8X8X8X8X8X8X8X8X8X8X8X8X8X8X8X8X8X",
"8X8X8X8X8X8X8X8X8X8X8X8X8X8X8X8X8X8X8X8X8X8X8X8X8X8X8X8X8X8X8X8X",
"8X8X8X8X8X8X8X8X8X8X8X8X8X8X8X8X8X8X8X8X8X8X8X8X8X8X8X8X8X8X8X8X",
"8X8X8X8X8X8X8X8X8X8X8X8X8X8X8X8X8X8X8X8X8X8X8X8X8X8X8X8X8X8X8X8X",
"8X8X8X8X8X8X8X8X8X8X8X8X8X8X8X8X8X8X8X8X8X8X8X8X8X8X8X8X8X8X8X8X",
"8X8X8X8X8X8X8X8X8X8X8X8X8X8X8X8X8X8X8X8X8X8X8X8X8X8X8X8X8X8X8X8X",
"8X8X8X8X8X8X8X8X8X8X8X8X8X8X8X8X# # # # 8X8X8X8X8X8X8X8X8X8X8X8X",
"8X8X8X8X8X8X8X8X8X8X8X8X8X8X8X8XZ H H M 8X8X8X8X8X8X8X8X8X8X8X8X",
"8X8X8X8X# # # # # # 8X8X8X8X# V G.`.`.A.i   8X8X# # # # 8X8X8X8X",
"8X8X8X8XZ K U U K Z 8X8X8X8X@ K `.6X5XXX7.i 8X8XZ H H Z 8X8X8X8X",
"8X8X# V G._.'.'._.H.S & & & $ P `.2X,X=X.XA.i v D.`.`.G.V # 8X8X",
"8X8X@ U [.;XOXOX;X{.I : < < : H ).<X:X>X3X(.S S (.7X7X(.K @ 8X8X",
"8X8X@ ' }.@X7.7.@X|.L , B B , G `.3X<X<X1X!.S S !.4X4X^.J # 8X8X",
"8X8X# F I.W.X.X.U.J.~ h 9.9.h E F./.~.oX-X^.A V !.4X4X^.J # 8X8X",
"8X8X8X8Xb 6.E.U.o.Y { 9.i.i.9.| E C n 8.+X].D V ^.7X7X(.K @ 8X8X",
"8X8X8X8XX H [. X[ p :.N.v.v.N.4.f 2 2 ~ P.J.Q T S.].].L.A # 8X8X",
"8X8X8X8Xo H `.#XZ.=.e.b.x.x.b.y.,.O.%.} R W  ...! G H S 8X8X8X8X",
"8X8X8X8X# K /.%XR.j.l.l.l.l.l.c.n.s.0.) y f 9.q.h > ; + 8X8X8X8X",
"8X8X8X8X# K /.$XT.f.h.l.l.l.l.c.m.3.k u / 2.u.i.4.N , O 8X8X8X8X",
"8X8X8X8X# I `.&XT.a.g.x.x.x.x.c.b.>.d g 3.B.m.M.V.0.x 6 8X8X8X8X",
"8X8X8X8X@ I ].*XT.a.g.x.x.x.x.x.x.r.>.,.t.b.n.M.B.d.0.( 7 = 8X8X",
"8X8X8X8X# A K.Q.Y.z.c.c.c.c.c.c.c.b.M.M.v.r.<.+.+.5.d.-.w = 8X8X",
"8X8X8X8X8X8Xm ] w.M.M.n.n.n.n.n.n.m.M.B.m.1.j 3 3 z q.;.r = 8X8X",
"8X8X8X8X8X8X. 1 ^ &.$.@.@.@.@.@.@.@.+.3.p.9.z 6 6 c q.-.r = 8X8X",
"8X8X8X8X8X8X8X8X4 9 9 9 9 9 9 9 9 6 5 l 9.d.0.&.&.0.k.-.w = 8X8X",
"8X8X8X8X8X8X8X8Xt 0 0 0 0 0 0 0 0 9 9 a _ *.-.-.-.-.*.( 8 - 8X8X",
"8X8X8X8X8X8Xm.t.<.@.#.#.#.#.#.#.#.&.*.` s 0 q r r e q 9 8X8X8X8X",
"8X8X8X8X8X8Xl.x.b.M.M.M.M.M.M.M.M.V.C.-.0 % * = = = = = 8X8X8X8X",
"8X8X8X8X8X8X8X8X8X8X8X8X8X8X8X8X8X8X8X8X8X8X8X8X8X8X8X8X8X8X8X8X",
"8X8X8X8X8X8X8X8X8X8X8X8X8X8X8X8X8X8X8X8X8X8X8X8X8X8X8X8X8X8X8X8X"
};
