/* XPM */
static char *result[] = {
/* columns rows colors chars-per-pixel */
"32 32 187 2 ",
"   c #081416",
".  c #0B1517",
"X  c #0A1617",
"o  c #0B1617",
"O  c #0C1617",
"+  c #0D1617",
"@  c #0C1618",
"#  c #0D1618",
"$  c #0D1718",
"%  c #0E1718",
"&  c #0E1819",
"*  c #0F1919",
"=  c #101819",
"-  c #101919",
";  c #131919",
":  c #10191A",
">  c #13191A",
",  c #121A1A",
"<  c #151A1A",
"1  c #191D1C",
"2  c #1A1D1C",
"3  c #191E1D",
"4  c #23201E",
"5  c #25211F",
"6  c #282220",
"7  c #2B2320",
"8  c #2A2421",
"9  c #2B2521",
"0  c #2C2421",
"q  c #2C2521",
"w  c #2E2521",
"e  c #2D2522",
"r  c #2E2622",
"t  c #2F2722",
"y  c #302722",
"u  c #302723",
"i  c #312723",
"p  c #322823",
"a  c #332824",
"s  c #342924",
"d  c #353029",
"f  c #38322A",
"g  c #472F28",
"h  c #463029",
"j  c #473029",
"k  c #483129",
"l  c #493129",
"z  c #4A3129",
"x  c #49312A",
"c  c #4A322A",
"v  c #4B322A",
"b  c #4C332A",
"n  c #4C332B",
"m  c #4E342B",
"M  c #40382E",
"N  c #423A2F",
"B  c #58372E",
"V  c #59382E",
"C  c #5B392E",
"Z  c #433A30",
"A  c #443A30",
"S  c #443B30",
"D  c #453B30",
"F  c #453B31",
"G  c #453C31",
"H  c #473C31",
"J  c #463D31",
"K  c #483D32",
"L  c #493D32",
"P  c #483E32",
"I  c #493E32",
"U  c #4A3E32",
"Y  c #4A3F33",
"T  c #4B3F33",
"R  c #503D32",
"E  c #513E32",
"W  c #523F33",
"Q  c #5F3B30",
"!  c #613C31",
"~  c #4C4033",
"^  c #4C4034",
"/  c #5B4335",
"(  c #6A4335",
")  c #6D4134",
"_  c #6C4335",
"`  c #62493A",
"'  c #734335",
"]  c #734436",
"[  c #744436",
"{  c #754436",
"}  c #754536",
"|  c #764536",
" . c #764537",
".. c #774537",
"X. c #774637",
"o. c #784637",
"O. c #794637",
"+. c #7B4637",
"@. c #7B4738",
"#. c #7C4738",
"$. c #7D4738",
"%. c #7C4838",
"&. c #7D4839",
"*. c #7E4839",
"=. c #7F4839",
"-. c #7F4939",
";. c #745A45",
":. c #765B46",
">. c #804939",
",. c #814A3A",
"<. c #824A3A",
"1. c #834A3A",
"2. c #854E3D",
"3. c #8D4F3D",
"4. c #8E4E3D",
"5. c #8F4F3D",
"6. c #8F503E",
"7. c #90503E",
"8. c #91503E",
"9. c #93503E",
"0. c #92513E",
"q. c #93513F",
"w. c #95513E",
"e. c #94513F",
"r. c #95513F",
"t. c #96513F",
"y. c #94523F",
"u. c #95523F",
"i. c #97523F",
"p. c #965340",
"a. c #975340",
"s. c #985340",
"d. c #985440",
"f. c #995440",
"g. c #995441",
"h. c #9A5441",
"j. c #9A5541",
"k. c #9B5541",
"l. c #9C5541",
"z. c #966049",
"x. c #906C51",
"c. c #977054",
"v. c #977155",
"b. c #987154",
"n. c #987155",
"m. c #997255",
"M. c #987356",
"N. c #9A7356",
"B. c #9C7457",
"V. c #A2614A",
"C. c #B06B50",
"Z. c #B16B50",
"A. c #B47D5C",
"S. c #BB8964",
"D. c #BB8965",
"F. c #BC8965",
"G. c #BC8A65",
"H. c #BD8A65",
"J. c #BD8A66",
"K. c #BD8B66",
"L. c #BE8A66",
"P. c #BE8B66",
"I. c #BF8C66",
"U. c #BF8C67",
"Y. c #C08C66",
"T. c #C08C67",
"R. c #C18D67",
"E. c #C28E68",
"W. c #C48E68",
"Q. c #C78F69",
"!. c #CF966D",
"~. c #D0976E",
"^. c #D1976E",
"/. c #D8976E",
"(. c #D3986F",
"). c #E19A70",
"_. c #E19B70",
"`. c #E39C71",
"'. c #E59D72",
"]. c #EEAA7B",
"[. c #F1AC7C",
"{. c #F8B17F",
"}. c #FAB280",
"|. c #FCB381",
" X c #FDB482",
".X c #FFB683",
"XX c None",
/* pixels */
"XXXXXXXXXXXXXXXXXXXXXXXXXXXXXXXXXXXXXXXXXXXXXXXXXXXXXXXXXXXXXXXX",
"XXXXXXXXXXXXXXXXXXXXXXXXXXXXXXXXXXXXXXXXXXXXXXXXXXXXXXXXXXXXXXXX",
"XXXXXXXXXXXXXXXXXXXXXXXXXXXXXXXXXXXXXXXXXXXXXXXXXXXXXXXXXXXXXXXX",
"XXXXXXXXXXXXXXXXXXXXXXXXXXXXXXXXXXXXXXXXXXXXXXXXXXXXXXXXXXXXXXXX",
"XXXXXXXXXXXXXXXXXXXXXXXXXXXXXXXXXXXXXXXXXXXXXXXXXXXXXXXXXXXXXXXX",
"XXXXXXXXXXXXXXXXXXXXXXXXXXXXXXXXXXXXXXXXXXXXXXXXXXXXXXXXXXXXXXXX",
"XXXXXXXXXXXXXXXXXXXXXXXXXXXXXXXXXXXXXXXXXXXXXXXXXXXXXXXXXXXXXXXX",
"XXXXXXXXXXXXXXXXXXXXXXXXXXXXXXXXXXXXXXXXXXXXXXXXXXXXXXXXXXXXXXXX",
"XXXXXXXXXXXXXXXXXXXXXXXXXXXXXXXXXXXX+ + + + + + XXXX+ + + + XXXX",
"XXXXXXXXXXXXXXXXXXXXXXXXXXXXXXXXXXXXA K K K K A XXXXA K K A XXXX",
"XXXXXXXX+ + + + + + XXXXXXXXXXXX+ Z n.G.D.D.G.v.M M v.P.P.n.Z + ",
"XXXXXXXXA I T T I A XXXXXXXXXXXXO I P.|.}.}.|.H.D D H..X.XH.I O ",
"XXXX+ Z n.L.I.I.L.m.S % = , : $ # U P.}.{.{.}.S.D D S. X XF.L + ",
"XXXXO T R.[.^.~.].R.T $ % 2 9 6 < K J.}.{.{.}.S.Z Z S. X XF.L + ",
"XXXXO ^ W.(.:.;.!.E.^ @ @ 8 Q C 5 J P.|.}.}.|.F.Z Z F..X.XH.I O ",
"XXXX+ H B.x.d S H.T.Y > 5 m 1.>.z E b.K.G.G.K.c.R R c.T.T.N.S + ",
"XXXXXXXXF f 3 L Y.U.P 4 V ,.0.8.>.( E G G G G W _ _ W J K D XXXX",
"XXXXXXXXO . + ~ T.Q.` g $.j.s.s.j.=.j 0 w w 0 l ,.<.z 4 ; o XXXX",
"XXXXXXXXXXXXO Y J./.z.+.4.s.p.p.d.5.#.' { { ' #.6.8.=.B 5 X XXXX",
"XXXXXXXXXXXX+ I G._.Z.t.u.u.u.u.u.a.f.7.-.-.7.g.d.h.l.,.b r XXXX",
"XXXXXXXXXXXX+ I G.).C.w.r.u.u.u.u.a.g.&.k k &.h.h.h.k.q.,.! t * ",
"XXXXXXXXXXXX+ Y P.`.C.9.e.p.p.p.p.a.d.@.h h %.7.*.] ] -.q.o.a * ",
"XXXXXXXXXXXXO Y T.'.C.9.e.p.p.p.p.p.p.3.@.&.6.*.x q q v <.O.s * ",
"XXXXXXXXXXXX+ S M.A.V.i.a.a.a.a.a.a.a.d.h.k.k.-.c r r n <.o.s * ",
"XXXXXXXXXXXXXXXXN / 2.h.h.f.f.f.f.f.f.g.h.k.h.7.-. . .,.y.o.a * ",
"XXXXXXXXXXXXXXXX  7 Q  .} [ [ [ [ [ [ [ [ [ [ { ..X.X.o...! y - ",
"XXXXXXXXXXXXXXXXXXXXe u u u u u u u u u u u u u i p p p p u XXXX",
"XXXXXXXXXXXXXXXXXXXXi i i i i i i i i i i i i i i p p 8 1 & XXXX",
"XXXXXXXXXXXXXXXXXXXX{ { { { { { { { { { { { { { { } | ) XXXXXXXX",
"XXXXXXXXXXXXXXXXXXXXh.h.h.h.h.h.h.h.h.h.h.h.h.h.h.h.h.h.XXXXXXXX",
"XXXXXXXXXXXXXXXXXXXXXXXXXXXXXXXXXXXXXXXXXXXXXXXXXXXXXXXXXXXXXXXX",
"XXXXXXXXXXXXXXXXXXXXXXXXXXXXXXXXXXXXXXXXXXXXXXXXXXXXXXXXXXXXXXXX"
};
