/* XPM */
static char *result[] = {
/* columns rows colors chars-per-pixel */
"32 32 223 2 ",
"   c #051114",
".  c #061114",
"X  c #071215",
"o  c #081416",
"O  c #091416",
"+  c #0A1517",
"@  c #0A1617",
"#  c #0B1617",
"$  c #0C1617",
"%  c #0D1617",
"&  c #0B1618",
"*  c #0C1718",
"=  c #0D1718",
"-  c #0D1819",
";  c #0F1919",
":  c #101919",
">  c #131919",
",  c #23201E",
"<  c #25211F",
"1  c #2B2320",
"2  c #2C2421",
"3  c #2D2421",
"4  c #2C2521",
"5  c #2E2521",
"6  c #2D2622",
"7  c #2E2622",
"8  c #2F2622",
"9  c #2F2722",
"0  c #302723",
"q  c #312723",
"w  c #322823",
"e  c #332824",
"r  c #342924",
"t  c #3B342C",
"y  c #3E362D",
"u  c #3F372D",
"i  c #3F372E",
"p  c #422E28",
"a  c #422F28",
"s  c #462F28",
"d  c #472F28",
"f  c #463029",
"g  c #473029",
"h  c #483129",
"j  c #493129",
"k  c #4A3129",
"l  c #49312A",
"z  c #49322A",
"x  c #4A322A",
"c  c #4B322A",
"v  c #4B332A",
"b  c #4C332A",
"n  c #4C332B",
"m  c #40382E",
"M  c #42392F",
"N  c #423A2F",
"B  c #433A2F",
"V  c #58372E",
"C  c #5A382E",
"Z  c #433A30",
"A  c #443A30",
"S  c #443B30",
"D  c #453B30",
"F  c #453C31",
"G  c #463C31",
"H  c #473C31",
"J  c #463D31",
"K  c #463D32",
"L  c #473D32",
"P  c #4C3A30",
"I  c #4E3B30",
"U  c #483D32",
"Y  c #483E32",
"T  c #493E32",
"R  c #4A3E33",
"E  c #4A3F33",
"W  c #4B3F33",
"Q  c #4D3C31",
"!  c #4F3C31",
"~  c #503E32",
"^  c #513E32",
"/  c #523E32",
"(  c #5F3B30",
")  c #603C30",
"_  c #613C31",
"`  c #633D31",
"'  c #643D32",
"]  c #653E32",
"[  c #4C4034",
"{  c #544033",
"}  c #5B4335",
"|  c #5F4D3C",
" . c #674134",
".. c #694134",
"X. c #6A4235",
"o. c #62493A",
"O. c #624E3D",
"+. c #734335",
"@. c #734436",
"#. c #744436",
"$. c #754436",
"%. c #764537",
"&. c #774537",
"*. c #774637",
"=. c #784637",
"-. c #794637",
";. c #7B4637",
":. c #794638",
">. c #7B4738",
",. c #7C4738",
"<. c #7D4738",
"1. c #7C4838",
"2. c #7D4838",
"3. c #7D4839",
"4. c #7F4838",
"5. c #7E4839",
"6. c #7F4839",
"7. c #7F4939",
"8. c #6E5643",
"9. c #705844",
"0. c #725844",
"q. c #725944",
"w. c #735945",
"e. c #755A45",
"r. c #755B46",
"t. c #804839",
"y. c #804939",
"u. c #814A3A",
"i. c #824A3A",
"p. c #854E3D",
"a. c #8D4F3D",
"s. c #8E4E3D",
"d. c #8F4F3D",
"f. c #8F503E",
"g. c #90503E",
"h. c #91503E",
"j. c #93503E",
"k. c #92513E",
"l. c #93513F",
"z. c #95513E",
"x. c #94513F",
"c. c #95513F",
"v. c #96513F",
"b. c #94523F",
"n. c #95523F",
"m. c #97523F",
"M. c #965340",
"N. c #975340",
"B. c #985340",
"V. c #985440",
"C. c #995440",
"Z. c #995441",
"A. c #9A5441",
"S. c #9A5541",
"D. c #9B5541",
"F. c #9C5541",
"G. c #9D5642",
"H. c #966049",
"J. c #966F53",
"K. c #967054",
"L. c #977054",
"P. c #977155",
"I. c #987155",
"U. c #987255",
"Y. c #997255",
"T. c #9A7255",
"R. c #987356",
"E. c #9A7356",
"W. c #9B7456",
"Q. c #9C7457",
"!. c #A2614A",
"~. c #B06B50",
"^. c #B16B50",
"/. c #A07758",
"(. c #B47D5C",
"). c #BA8864",
"_. c #BB8965",
"`. c #BC8965",
"'. c #BC8A65",
"]. c #BD8A65",
"[. c #BD8B66",
"{. c #BE8A66",
"}. c #BE8B66",
"|. c #BF8C66",
" X c #C08C67",
".X c #C18C67",
"XX c #C08D67",
"oX c #C18D67",
"OX c #C18D68",
"+X c #C48E68",
"@X c #C78F69",
"#X c #CA936B",
"$X c #CB936B",
"%X c #CB936C",
"&X c #CB946C",
"*X c #CE956D",
"=X c #CF966D",
"-X c #D0976E",
";X c #D1976E",
":X c #D9976E",
">X c #D3986F",
",X c #E19A70",
"<X c #E19B70",
"1X c #E39C71",
"2X c #E59D72",
"3X c #E8A678",
"4X c #E9A779",
"5X c #ECA97A",
"6X c #EFAB7B",
"7X c #F0AB7C",
"8X c #F0AC7C",
"9X c #F8B17F",
"0X c #F9B180",
"qX c #F9B280",
"wX c #FAB280",
"eX c #FBB280",
"rX c #FBB381",
"tX c #FCB381",
"yX c #FEB582",
"uX c #FFB582",
"iX c #FFB583",
"pX c #FFB783",
"aX c None",
/* pixels */
"aXaXaXaXaXaXaXaXaXaXaXaXaXaXaXaXaXaXaXaXaXaXaXaXaXaXaXaXaXaXaXaX",
"aXaXaXaXaXaXaXaXaXaXaXaXaXaXaXaXaXaXaXaXaXaXaXaXaXaXaXaXaXaXaXaX",
"aXaXaXaXaXaXaXaXaXaXaXaXaXaXaXaXaXaXaXaXaXaXaXaXaXaXaXaXaXaXaXaX",
"aXaXaXaXaXaXaXaXaXaXaXaXaXaXaXaXaXaXaXaXaXaXaXaXaXaXaXaXaXaXaXaX",
"aXaXaXaXaXaXaXaXaXaXaXaXaXaXaXaXaXaXaXaXaXaXaXaXaXaXaXaXaXaXaXaX",
"aXaXaXaXaXaXaXaXaXaXaXaXaXaXaXaXaXaXaXaXaXaXaXaXaXaXaXaXaXaXaXaX",
"aXaXaXaXaXaXaXaXaXaXaXaXaXaXaXaXaXaXaXaXaXaXaXaXaXaXaXaXaXaXaXaX",
"aXaXaXaXaXaXaXaXaXaXaXaXaXaXaXaXaXaXaXaXaXaXaXaXaXaXaXaXaXaXaXaX",
"aXaXaXaXaXaXaXaXaXaXaXaXaXaXaXaX% % % % % % aXaX% % % % aXaXaXaX",
"aXaXaXaXaXaXaXaXaXaXaXaXaXaXaXaXA U U U U A aXaXA U U B aXaXaXaX",
"aXaXaXaXaXaXaXaXaXaXaXaXaXaX% Z I.'._._.'.P.m m P.}.}.K.i . aXaX",
"aXaXaXaXaXaXaXaXaXaXaXaXaXaX+ Y |.uXrXwXtX`.M Z }.pXuX%X0.i aXaX",
"aXaX% % % % % % aXaXaXaXaXaXO U |.yXqX9XwX).m M }.iXrX3X$XK.M % ",
"aXaXA T W W T B aXaXaXaXaXaX3 / L.&X4X0XwX$Xq.O.Q.%X3XrXuX XR $ ",
"% Z I.{.|.|.}.K.u   aXaX: q ` X.! 9.&XtXeX5X;X/.| 8.#XuXpX XR $ ",
"$ W oX8X=X*X6X=Xw.m aXaX= e :.t.s Q L.[.'.[.OXT.I P J. X.XE.S % ",
"$ [ +X>Xe.q.=X8X*XU.A # & q *.k.4. .~ F F K Y { X...^ J Y D aXaX",
"% G W.Y.y t K.-X7X XT > < v 5.S.F.6.g 2 5 5 2 j u.i.k , > # aXaX",
"aXaXS Z aXaXi r.=XXXY , C y.f.N.V.d.,.+.$.$.+.,.f.h.6.V < @ aXaX",
"aXaX% % aXaXX H ].@Xo.d <.S.B.n.n.N.C.g.7.7.g.Z.V.A.F.u.b 7 aXaX",
"aXaXaXaXaXaXO L '.:XH.;.s.B.M.n.n.N.Z.3.h h 3.A.A.A.D.l.u._ 9 ; ",
"aXaXaXaXaXaX% T '.<X^.v.n.n.n.M.M.N.V.>.f f 1.g.5.@.@.7.l.=.e ; ",
"aXaXaXaXaXaX% T '.,X~.z.c.n.n.M.M.M.M.a.>.3.f.5.l 4 4 c i.-.r ; ",
"aXaXaXaXaXaX% E }.1X~.j.x.M.N.N.N.N.N.V.A.D.D.7.x 7 7 n i.=.r ; ",
"aXaXaXaXaXaX$ E  X2X~.j.x.M.B.C.C.C.C.Z.A.D.A.g.7.%.%.u.b.=.e ; ",
"aXaXaXaXaXaX% S R.(.!.m.B.f.2.@.#.#.#.#.#.#.#.$.&.*.*.=.&.) 9 : ",
"aXaXaXaXaXaXaXaXN } p.F.F.7.z 6 7 0 0 0 0 0 0 0 q w w q 0 7 aXaX",
"aXaXaXaXaXaXaXaXo 1 ( =.*.' p 0 0 q q q q q q q q q q q q q aXaX",
"aXaXaXaXaXaXaXaXaXaX8 q q a ] &.%.$.$.$.$.$.$.$.$.$.$.$.$.$.aXaX",
"aXaXaXaXaXaXaXaXaXaX; - * q =.G.F.A.A.A.A.A.A.A.A.A.A.A.A.A.aXaX",
"aXaXaXaXaXaXaXaXaXaXaXaXaXaXaXaXaXaXaXaXaXaXaXaXaXaXaXaXaXaXaXaX",
"aXaXaXaXaXaXaXaXaXaXaXaXaXaXaXaXaXaXaXaXaXaXaXaXaXaXaXaXaXaXaXaX"
};
