/* XPM */
static char *result[] = {
/* columns rows colors chars-per-pixel */
"32 32 175 2 ",
"   c #081416",
".  c #0A1517",
"X  c #0B1517",
"o  c #0A1617",
"O  c #0B1617",
"+  c #0C1617",
"@  c #0D1617",
"#  c #0D1718",
"$  c #0F1919",
"%  c #101919",
"&  c #131919",
"*  c #151A1A",
"=  c #191E1D",
"-  c #23201E",
";  c #25211F",
":  c #272220",
">  c #2B2320",
",  c #2C2421",
"<  c #2C2521",
"1  c #2E2521",
"2  c #2E2622",
"3  c #2F2622",
"4  c #2F2722",
"5  c #302722",
"6  c #302723",
"7  c #312723",
"8  c #322823",
"9  c #332823",
"0  c #332824",
"q  c #342824",
"w  c #342924",
"e  c #353029",
"r  c #38322A",
"t  c #472F28",
"y  c #463029",
"u  c #473029",
"i  c #483129",
"p  c #493129",
"a  c #4A3129",
"s  c #49312A",
"d  c #4A322A",
"f  c #4B322A",
"g  c #4C332A",
"h  c #4C332B",
"j  c #4D332B",
"k  c #40382E",
"l  c #423A2F",
"z  c #58372E",
"x  c #5B392E",
"c  c #433A30",
"v  c #443A30",
"b  c #443B30",
"n  c #453B30",
"m  c #453B31",
"M  c #453C31",
"N  c #473C31",
"B  c #463D31",
"V  c #483D32",
"C  c #493D32",
"Z  c #483E32",
"A  c #493E32",
"S  c #4A3E32",
"D  c #4A3E33",
"F  c #4A3F33",
"G  c #4B3F33",
"H  c #503D32",
"J  c #513E32",
"K  c #523F33",
"L  c #5F3B30",
"P  c #613C31",
"I  c #643D31",
"U  c #4C4033",
"Y  c #4C4034",
"T  c #5B4335",
"R  c #6A4335",
"E  c #6C4335",
"W  c #62493A",
"Q  c #734335",
"!  c #734436",
"~  c #754436",
"^  c #754536",
"/  c #764537",
"(  c #774537",
")  c #784637",
"_  c #794637",
"`  c #7B4637",
"'  c #7B4738",
"]  c #7C4738",
"[  c #7D4738",
"{  c #7C4838",
"}  c #7D4839",
"|  c #7E4839",
" . c #7F4839",
".. c #7F4939",
"X. c #745A45",
"o. c #765B46",
"O. c #804939",
"+. c #814A3A",
"@. c #824A3A",
"#. c #834A3A",
"$. c #854E3D",
"%. c #8D4F3D",
"&. c #8E4E3D",
"*. c #8F4F3D",
"=. c #8F503E",
"-. c #90503E",
";. c #91503E",
":. c #91513E",
">. c #93503E",
",. c #93513F",
"<. c #95513E",
"1. c #94513F",
"2. c #95513F",
"3. c #96513F",
"4. c #94523F",
"5. c #95523F",
"6. c #97523F",
"7. c #965340",
"8. c #975340",
"9. c #985340",
"0. c #985440",
"q. c #995440",
"w. c #995441",
"e. c #9A5441",
"r. c #9A5541",
"t. c #9B5541",
"y. c #9C5541",
"u. c #966049",
"i. c #906C51",
"p. c #977054",
"a. c #977155",
"s. c #987154",
"d. c #987155",
"f. c #987356",
"g. c #9A7356",
"h. c #9C7457",
"j. c #A2614A",
"k. c #B06B50",
"l. c #B16B50",
"z. c #B47D5C",
"x. c #BB8964",
"c. c #BB8965",
"v. c #BC8965",
"b. c #BC8A65",
"n. c #BD8A65",
"m. c #BD8A66",
"M. c #BD8B66",
"N. c #BE8A66",
"B. c #BE8B66",
"V. c #BF8B66",
"C. c #BF8C66",
"Z. c #BF8C67",
"A. c #C08C66",
"S. c #C08C67",
"D. c #C18D67",
"F. c #C28D67",
"G. c #C48E68",
"H. c #C78F69",
"J. c #CF966D",
"K. c #D0976E",
"L. c #D1976E",
"P. c #D8976E",
"I. c #D3986F",
"U. c #E19A70",
"Y. c #E19B70",
"T. c #E39C71",
"R. c #E59D72",
"E. c #EEAA7B",
"W. c #F1AC7C",
"Q. c #F8B17F",
"!. c #FAB280",
"~. c #FCB381",
"^. c #FDB482",
"/. c #FFB683",
"(. c None",
/* pixels */
"(.(.(.(.(.(.(.(.(.(.(.(.(.(.(.(.(.(.(.(.(.(.(.(.(.(.(.(.(.(.(.(.",
"(.(.(.(.(.(.(.(.(.(.(.(.(.(.(.(.(.(.(.(.(.(.(.(.(.(.(.(.(.(.(.(.",
"(.(.(.(.(.(.(.(.(.(.(.(.(.(.(.(.(.(.(.(.(.(.(.(.(.(.(.(.(.(.(.(.",
"(.(.(.(.(.(.(.(.(.(.(.(.(.(.(.(.(.(.(.(.(.(.(.(.(.(.(.(.(.(.(.(.",
"(.(.(.(.(.(.(.(.(.(.(.(.(.(.(.(.(.(.(.(.(.(.(.(.(.(.(.(.(.(.(.(.",
"(.(.(.(.(.(.(.(.(.(.(.(.(.(.(.(.(.(.(.(.(.(.(.(.(.(.(.(.(.(.(.(.",
"(.(.(.(.(.(.(.(.(.(.(.(.(.(.(.(.(.(.(.(.(.(.(.(.(.(.(.(.(.(.(.(.",
"(.(.(.(.(.(.(.(.(.(.(.(.(.(.(.(.(.(.(.(.(.(.(.(.(.(.(.(.(.(.(.(.",
"(.(.(.(.(.(.(.(.(.(.(.(.(.(.(.(.(.(.(.(.(.(.(.(.(.(.(.(.(.(.(.(.",
"(.(.(.(.(.(.(.(.(.(.(.(.(.(.(.(.(.(.(.(.(.(.(.(.(.(.(.(.(.(.(.(.",
"(.(.(.(.(.(.(.(.(.(.(.(.(.(.(.(.@ @ @ @ @ @ (.(.@ @ @ @ (.(.(.(.",
"(.(.(.(.(.(.(.(.(.(.(.(.(.(.(.(.v V V V V v (.(.v V V v (.(.(.(.",
"(.(.@ @ @ @ @ @ (.(.(.(.(.(.@ c d.b.c.c.b.a.k k a.B.B.d.c @ (.(.",
"(.(.v A G G A v (.(.(.(.(.(.+ A B.~.!.!.~.n.n n n././.n.A + (.(.",
"@ c d.N.C.C.N.d.c @ (.(.$ # # S B.!.Q.Q.!.x.n n x.^.^.v.C @ (.(.",
"+ G D.W.L.K.E.V.D + (.(.7 : * V m.!.Q.Q.!.x.c c x.^.^.v.C @ (.(.",
"+ Y G.I.o.X.J.F.U + . 3 I x ; B B.~.!.!.~.v.c c v././.n.A + (.(.",
"@ N h.i.e b n.S.F & ; j #.O.a J s.M.b.b.M.p.H H p.S.S.g.b @ (.(.",
"(.(.m r = C A.Z.Z - z O.:.;.O.R J M M M M K E E K B V n (.(.(.(.",
"(.(.+ X @ U S.H.W t [ r.9.9.r. .u , 1 1 , p +.@.a - & O (.(.(.(.",
"(.(.(.(.+ F m.P.u.` &.9.7.7.0.*.] Q ~ ~ Q ] =.;. .z ; o (.(.(.(.",
"(.(.(.(.@ A b.Y.l.3.5.5.5.5.5.8.q.-.....-.w.0.e.y.+.g 2 (.(.(.(.",
"(.(.(.(.@ A b.U.k.<.2.5.5.5.5.8.w.} i i } e.e.e.t.,.+.P 4 $ (.(.",
"(.(.(.(.@ F B.T.k.>.1.7.7.7.7.8.0.' y y { -.| ! ! ..,.) 0 $ (.(.",
"(.(.(.(.+ F S.R.k.>.1.7.7.7.7.7.7.%.' } =.| s < < f @._ w $ (.(.",
"(.(.(.(.@ b f.z.j.6.8.8.8.8.8.8.8.0.e.t.t...d 2 2 h @.) w $ (.(.",
"(.(.(.(.(.(.l T $.e.e.q.q.q.q.q.q.w.e.t.e.-.../ / +.4.) 0 $ (.(.",
"(.(.(.(.(.(.  > L ( / ~ ~ ~ ~ ~ ~ ~ ~ ~ ~ ^ ( ) ) ) ( P 5 % (.(.",
"(.(.(.(.(.(.(.(.3 8 8 8 8 8 8 8 8 8 8 8 8 9 q w w q 9 6 (.(.(.(.",
"(.(.(.(.(.(.(.(.$ $ $ $ $ $ $ $ $ $ $ $ $ $ $ $ $ $ $ $ (.(.(.(.",
"(.(.(.(.(.(.(.(.(.(.(.(.(.(.(.(.(.(.(.(.(.(.(.(.(.(.(.(.(.(.(.(.",
"(.(.(.(.(.(.(.(.(.(.(.(.(.(.(.(.(.(.(.(.(.(.(.(.(.(.(.(.(.(.(.(."
};
