/* XPM */
static char *result[] = {
/* columns rows colors chars-per-pixel */
"32 32 201 2 ",
"   c #070F0F",
".  c #0A1416",
"X  c #0D1618",
"o  c #0F1819",
"O  c #061215",
"+  c #141B1B",
"@  c #191E1D",
"#  c #1D201E",
"$  c #20211F",
"%  c #1E2320",
"&  c #242522",
"*  c #2A2723",
"=  c #252924",
"-  c #2C2B25",
";  c #2D2F28",
":  c #342C26",
">  c #392F28",
",  c #2E312B",
"<  c #33332B",
"1  c #3D342A",
"2  c #38392E",
"3  c #2E3334",
"4  c #313535",
"5  c #313739",
"6  c #3E3A34",
"7  c #44352C",
"8  c #48372D",
"9  c #4D3A2F",
"0  c #4E3B30",
"q  c #403F31",
"w  c #523D31",
"e  c #494436",
"r  c #4E4A39",
"t  c #494535",
"y  c #514C3A",
"u  c #594435",
"i  c #56503D",
"p  c #5D533D",
"a  c #614436",
"s  c #644738",
"d  c #634B3A",
"f  c #6B4A3A",
"g  c #774F3D",
"h  c #65523E",
"j  c #76523F",
"k  c #44304F",
"l  c #49334F",
"z  c #4A3C44",
"x  c #4D3750",
"c  c #4F3850",
"v  c #543C51",
"b  c #3C4041",
"n  c #5A4748",
"m  c #575346",
"M  c #5D4555",
"N  c #4D5153",
"B  c #5E5C56",
"V  c #66494C",
"C  c #645B44",
"Z  c #695E48",
"A  c #765441",
"S  c #7C5441",
"D  c #644A56",
"F  c #6C4A54",
"G  c #664652",
"H  c #734D53",
"J  c #6B5159",
"K  c #7C5354",
"L  c #795C5C",
"P  c #755559",
"I  c #6D6249",
"U  c #6A6147",
"Y  c #72674C",
"T  c #796C4E",
"R  c #7B6349",
"E  c #7E635F",
"W  c #7A6A55",
"Q  c #5F6163",
"!  c #636568",
"~  c #756F61",
"^  c #6B6D70",
"/  c #8A5C46",
"(  c #815742",
")  c #905F48",
"_  c #885D59",
"`  c #915E57",
"'  c #8D6249",
"]  c #9A664C",
"[  c #90644B",
"{  c #9B6254",
"}  c #9D6B52",
"|  c #91655A",
" . c #986956",
".. c #8A7957",
"X. c #8A7857",
"o. c #9D7B5B",
"O. c #9C7458",
"+. c #A3694F",
"@. c #A06756",
"#. c #A56C50",
"$. c #A96E52",
"%. c #A76C59",
"&. c #AE7154",
"*. c #A77B59",
"=. c #A87958",
"-. c #B27256",
";. c #B97657",
":. c #B37459",
">. c #BC7758",
",. c #BC7A59",
"<. c #B87A5B",
"1. c #826760",
"2. c #8B6F62",
"3. c #8D7F65",
"4. c #967566",
"5. c #A77B65",
"6. c #A67466",
"7. c #B57C62",
"8. c #C47D5B",
"9. c #9A845F",
"0. c #B7835E",
"q. c #9C8564",
"w. c #9E8861",
"e. c #9F9077",
"r. c #AB8761",
"t. c #A2856A",
"y. c #A68B6B",
"u. c #BE8964",
"i. c #B68663",
"p. c #AC9066",
"a. c #AE966A",
"s. c #AE986B",
"d. c #B0966B",
"f. c #B39A6D",
"g. c #BB9C6E",
"h. c #BB936D",
"j. c #AD9272",
"k. c #BB9C72",
"l. c #B19774",
"z. c #BBA06E",
"x. c #BDA074",
"c. c #C3815D",
"v. c #C68B64",
"b. c #CA8C64",
"n. c #C58765",
"m. c #CB9067",
"M. c #CD9569",
"N. c #C6996E",
"B. c #CE9B6D",
"V. c #C1956C",
"C. c #D09B6D",
"Z. c #D0966B",
"A. c #CA9F70",
"S. c #C39F73",
"D. c #C2A377",
"F. c #CEA373",
"G. c #CEA977",
"H. c #C2A579",
"J. c #CCAD7A",
"K. c #C7A878",
"L. c #D3A674",
"P. c #D1AB77",
"I. c #D2AA7A",
"U. c #CEB07C",
"Y. c #D3B47D",
"T. c #958D82",
"R. c #999699",
"E. c #848487",
"W. c #B88F82",
"Q. c #B49782",
"!. c #BCA681",
"~. c #A09EA5",
"^. c #B3ADA9",
"/. c #CAA88B",
"(. c #DCBC81",
"). c #D6BB8E",
"_. c #DAB888",
"`. c #CEB498",
"'. c #D8BB90",
"]. c #CCAEA2",
"[. c #DCBEB2",
"{. c #C7B8A7",
"}. c #DFC28F",
"|. c #E2C698",
" X c #CBC0B7",
".X c #DECEBE",
"XX c #E5CDAD",
"oX c #E4C4A6",
"OX c #E4CEB7",
"+X c #C3BFC4",
"@X c #D8CAC5",
"#X c #DAD4DB",
"$X c #EFDDC9",
"%X c #F0DECA",
"&X c #EBDED7",
"*X c #E7D5D1",
"=X c #EDE6EA",
"-X c #ECE2E2",
";X c #F6EBE8",
":X c #FAF1F5",
">X c None",
/* pixels */
">X>X>X>X>XO         O O O O O O >X>X>X>X>X>X>X>X>X>X>X>X>X>X>X>X",
">X>X>X>X>X+ + + o # # o @ @ @ + >X>X>X>X>X>X>X>X>X>X>X>X>X>X>X>X",
">X>X>X>X>X3 4 5 5 5 3 , - ; ; - >X>X>X>X>X>X>X>X>X>X>X>X>X>X>X>X",
">X>X>X>X>XN ! ! ! Q B N i i i r < >X>X>X>X>X>X>X>X>X>X>X>X>X>X>X",
">X>X>X>X5 ^ R.~.~.R.T.q.......Y q o . + o . . >X>X>X>X>X. o + + ",
">X>X>Xo b E.+X#X#X@X{.x.g.z.f...r # . + + + + + >X>X>X+ + + + + ",
">X>X>X- N R.#X:X;X&XOX}.U.Y.J.w.p - + + @ & - , >X>X>X; = # + + ",
">X>X2 r W ^.=X:X;X$XXX}.Y.(.Y.a.R 0 * @ # 2 r y 2 >Xq y r , # + ",
". & r T j. X=X;X%XXX|.}.Y.(.Y.S.O.g 7 $ = y T Y q = y T Y t # o ",
". = p 9./.@X-X&XXX'._.Y.Y._.Y.N.0.] a * < Y p.X.t - C q.q.m = . ",
"X = h a.'.OX*X@X`.H.k.x.H.G.G.A.c.-.g 7 e X.g.9.r , Z s.a.Z = . ",
". $ U s.}.oX[.].Q.t.q.t.y.h.N.M.c.,./ s h O.g.5.n 6 Y k.g.U = . ",
". = C s.(._./.W.4.2.E ~ | 5.u.n.c.,.+.' ' =.u.O.V z W k.f.U = O ",
". = C a./.F.n.6.1.D D D P  .<.c.c.,.-.$.$.;.,. .V M 2.k.s.U = . ",
". = U a.L.Z.c.{ H v x c F | 7.8.8.>.>.>.8.8.8.@.K F 4.k.p.C = . ",
". = C a.P.Z.>.] F x k l D | 7.n.c.>.8.c.8.8.>.%.| _ 5.V.r.h & . ",
". = C s.P.B.,.{ F v k l M O.h.M.c.8.8.8.c.8.8.-.%.%.7.v.*.h & X ",
". = C a.P.B.,.{ H v x v J 4.D.B.c.0.>.>.>.8.>.;.&.-.,.,.} u & X ",
". = C p.L.m.,.@._ M v D ~ t.K.F.v.>.-.#.$.+.#.$.#.#.$.#./ w % X ",
". = h r.B.b.8.%.` K K ~ 4.l.J.P.m.>.+./ j g ( j S ( ( S s 1 # o ",
". & d *.m.b.,.%.{ ` 6.5.j.x.Y.P.m.;.[ s t 9 w w w w w w 7 : @ o ",
"X & u } ,.8.,.;.-.-.i.k.D.J.U.F.b.&.j 7 $ $ - $ * * * * & @ + + ",
"o $ u / $.;.>.>.,.8.n.D.G.Y.G.N.0.] f : @ @ @ @ @ + + + + + + + ",
"o $ 8 f / #.>.8.8.8.m.C.L.L.A.i.] j u $ .   O O . . X . . o + + ",
">X>X: 8 s ' ;.8.c.8.b.m.Z.Z.m.=.A w > >X>X>X>X>X>X>X>X>X>X>X>X>X",
">X>X>X& 7 S &.8.,.,.8.,.c.c.<.[ u - $ >X>X>X>X>X>X>X>X>X>X>X>X>X",
">X>X>X+ : f ] $.#.#.#.#.#.&.+.S 7 @ >X>X>X>X>X>X>X>X>X>X>X>X>X>X",
">X>X>X>X* w g S S S S S S S j s > X >X>X>X>X>X>X>X>X>X>X>X>X>X>X",
">X>X>X>X>X1 0 w 0 0 0 0 0 w 0 7 - >X>X>X>X>X>X>X>X>X>X>X>X>X>X>X",
">X>X>X>X>X* * * * * * * * * * * >X>X>X>X>X>X>X>X>X>X>X>X>X>X>X>X",
">X>X>X>X>X+ + + + + + + + + + + >X>X>X>X>X>X>X>X>X>X>X>X>X>X>X>X",
">X>X>X>X>X. X X . X X . . X . . >X>X>X>X>X>X>X>X>X>X>X>X>X>X>X>X"
};
