/* XPM */
static char *result[] = {
/* columns rows colors chars-per-pixel */
"32 32 37 1 ",
"  c #ADBC3A",
". c #ADBB39",
"X c #ACBB39",
"o c #ACBA39",
"O c #ACB636",
"+ c #ABB435",
"@ c #ACB737",
"# c #AAAC30",
"$ c #A8A62C",
"% c #ABB133",
"& c #A9AA2E",
"* c #A9A62C",
"= c #A9AA2F",
"- c #A9A92E",
"; c #ABB536",
": c #ABB636",
"> c #ABB233",
", c #ACB736",
"< c #AAAB2F",
"1 c #ACB837",
"2 c #AAB032",
"3 c #A8A42B",
"4 c #ABB535",
"5 c #ADBD3A",
"6 c #A9AB2F",
"7 c #AAAD30",
"8 c #A8A52B",
"9 c #A8A129",
"0 c #A9A72D",
"q c #A79F28",
"w c #A7A028",
"e c #A8A229",
"r c #A9A72C",
"t c #A79F27",
"y c #ACBA38",
"u c #AAAF32",
"i c white",
/* pixels */
"                                ",
"                                ",
"                                ",
"                     ..      .. ",
"                     .X      X. ",
"             ..        oO++Oo  X",
"             .X        @#$$#@  X",
"           ..  oO++OoX@%&**=%@o ",
"           .X  @#$$#@@#-%;:>&#O ",
"             o,%&**=>%&<@ 123*45",
"             O6-%:;%&&%@X17890;5",
"             O6-%1X4**4X128qw$2;",
"             o,%&#@;**;1789wwe8r",
"           .X  ,6<,4**4;rqwwwe8r",
"           ..  oOOo4**4;rtqwq82;",
" ..      XX        O<#@@#rrrr#@5",
" .X      XX        yO,oo,4444,o ",
"X  oO++Oo  oO++Oo              X",
"X  @#$$#@55@#$$#@              X",
" o,%&**&%;;%&**&%,o             ",
" O<-%:;%=**&%;:%-6O             ",
" O<-%1X;rw3#@ 1>&<O             ",
" o,%&#@;r3u@X@#=%@o             ",
"X  ,6<,4**4X1u332@o             ",
"X  oOOo4**;178998#,             ",
" .X    O<#@;rtq93#O             ",
" ..    yO@o4*tt8u@o             ",
"     .X    ,#**#@  X.           ",
"     ..    o,44,o  ..           ",
"         .X      X.             ",
"         ..      ..             ",
"                                "
};
