/* XPM */
static char *result[] = {
/* columns rows colors chars-per-pixel */
"32 32 161 2 ",
"   c #060D0D",
".  c #060F10",
"X  c #061215",
"o  c #0C1416",
"O  c #0D1619",
"+  c #3D2F22",
"@  c #3E3124",
"#  c #38372B",
"$  c #3A3A2F",
"%  c #3E3E33",
"&  c #423526",
"*  c #483627",
"=  c #483827",
"-  c #463A29",
";  c #4A3D2B",
":  c #413F31",
">  c #3E4036",
",  c #434237",
"<  c #484436",
"1  c #46453A",
"2  c #49483B",
"3  c #714E31",
"4  c #6B5339",
"5  c #775835",
"6  c #70583E",
"7  c #765635",
"8  c #414747",
"9  c #414748",
"0  c #444A4B",
"q  c #494E4D",
"w  c #6F624B",
"e  c #736145",
"r  c #68695E",
"t  c #767976",
"y  c #767B7C",
"u  c #945F39",
"i  c #9D6F40",
"p  c #9E7142",
"a  c #847555",
"s  c #A07141",
"d  c #BB7441",
"f  c #B97947",
"g  c #C77E48",
"h  c #AB895D",
"j  c #958768",
"k  c #948566",
"l  c #A38E64",
"z  c #B89061",
"x  c #A79772",
"c  c #A89772",
"v  c #A69B79",
"b  c #B49E77",
"n  c #BB9D71",
"m  c #B6A175",
"M  c #B6A47D",
"N  c #BAA47C",
"B  c #CB8147",
"V  c #C9804A",
"C  c #C5894C",
"Z  c #C38247",
"A  c #D38E4D",
"S  c #D2904F",
"D  c #C18E57",
"F  c #C39058",
"G  c #DD945A",
"H  c #D49350",
"J  c #EE8E4C",
"K  c #F08F4D",
"L  c #EE904E",
"P  c #F1914E",
"I  c #EB9553",
"U  c #EC9B5D",
"Y  c #E79756",
"T  c #F79450",
"R  c #F49A55",
"E  c #FA9C52",
"W  c #F09759",
"Q  c #F29E5D",
"!  c #EDA05E",
"~  c #F1A558",
"^  c #FEA95A",
"/  c #FDA35A",
"(  c #C79260",
")  c #D49D65",
"_  c #EE9F61",
"`  c #DDA164",
"'  c #DDA16A",
"]  c #C9A275",
"[  c #C4A073",
"{  c #DFAE71",
"}  c #D4AC75",
"|  c #E7A461",
" . c #EFA062",
".. c #E4A368",
"X. c #ECA56A",
"o. c #EFAA6D",
"O. c #F3A363",
"+. c #F9AD64",
"@. c #F2AC6E",
"#. c #FFB165",
"$. c #FDB76C",
"%. c #FEB96F",
"&. c #F2A570",
"*. c #F2AA76",
"=. c #E0B074",
"-. c #EDB47B",
";. c #FABB75",
":. c #F4BB7D",
">. c #9CA186",
",. c #A4A381",
"<. c #AAA684",
"1. c #BDA880",
"2. c #B4A88C",
"3. c #A7AD97",
"4. c #B3B59E",
"5. c #9EA1A2",
"6. c #A1A4A6",
"7. c #BFBCB3",
"8. c #C8AD81",
"9. c #C5B78E",
"0. c #DCB583",
"q. c #D9B78A",
"w. c #DBBB8B",
"e. c #CBBC96",
"r. c #D0BE96",
"t. c #E1BD8E",
"y. c #F3BF82",
"u. c #BEC1BB",
"i. c #D8C39A",
"p. c #E7C189",
"a. c #EDC28B",
"s. c #F5C184",
"d. c #F8C182",
"f. c #F2C38C",
"g. c #F3CA8F",
"h. c #F9C98F",
"j. c #E6C191",
"k. c #F3CB90",
"l. c #F3CC9F",
"z. c #DCCBAC",
"x. c #CBC8BF",
"c. c #F8DBA9",
"v. c #E7D8BA",
"b. c #F8D2B7",
"n. c #F5DFB5",
"m. c #F9E1B6",
"M. c #CFCBC1",
"N. c #C6C8CA",
"B. c #D0CCC3",
"V. c #DED6C4",
"C. c #D4D6D7",
"Z. c #F8DEC7",
"A. c #E1DFD0",
"S. c #F2E3CC",
"D. c #FBE0C8",
"F. c #FCF3DE",
"G. c #EAECE5",
"H. c #F8F4E9",
"J. c #FFFFFE",
"K. c #F9F7F3",
"L. c None",
/* pixels */
"L.L.L.L.L.L.L.L.L.L.L.L.L.L.L.L.L.L.L.L.L.L.L.L.L.L.L.L.L.L.L.L.",
"L.L.L.L.L.L.L.L.L.L.L.L.L.L.L.L.L.L.L.L.L.L.L.L.L.L.L.L.L.L.L.L.",
"L.L.L.L.L.L.L.L.L.L.L.L.L.L.L.L.L.L.L.L.L.L.L.L.L.L.L.L.L.L.L.L.",
"L.L.L.L.L.L.L.L.L.L.L.L.L.L.L.L.L.L.L.L.L.L.L.L.L.L.L.L.L.L.L.L.",
"L.L.L.L.L.L.L.L.L.L.L.L.L.L.L.L.L.L.L.L.L.L.L.L.L.L.L.L.L.L.L.L.",
"L.L.L.L.L.L.L.L.L.L.L.L.L.L.L.L.L.L.L.L.L.L.L.L.L.L.L.L.L.L.L.L.",
"L.L.L.L.L.L.L.L.L.L.L.L.L.L.o o O o O o O o O o L.L.L.L.L.L.L.L.",
"L.L.L.L.L.L.L.L.L.L.L.L.L.L.= < < 2 2 < < = = & L.L.L.L.L.L.L.L.",
"L.L.L.L.L.L.L.L.L.L.O O X - s F n M M n F Z d u & X L.L.L.L.L.L.",
"L.L.L.L.L.L.L.L.L.L.- - - 5 S $.d.f.f.s.;.#./ Z 3 @ L.L.L.L.L.L.",
"L.L.L.L.L.L.L.L.X & p C C S ! ^ O.O.O.@.s.d.+.R B u & O L.L.L.L.",
"L.L.L.L.L.L.L.L.@ 7 A #.$.%.%.+.R P P  .a.k.$.^ E d * O L.L.L.L.",
"L.L.L.L.L.L.. & p A L +.d.g.k.y.#.R P ! a.g.$.^ E d = O L.L.L.L.",
"L.L.L.L.L.L.: e ) #.R W -.a.a.y.;.+.R U 0.w.{ | _ f - O L.L.L.L.",
"L.L.L.L.o , k 8.p.:.U I U  .U o.s.:.Q G b >.v n } l ; O L.L.L.L.",
"L.L.L.L.X 1 N c.m.l.X.J J J P  .a.j.' F x >.3.3.c a $ O L.L.L.L.",
"L.L.L.L.X , N m.F.Z.*.J J J J _ f.i.M c m e.C.x.r # L.L.L.L.L.L.",
"L.L.L.L.: e [ l.D.b.&.J J J K _ 0.9.,.<.i.z.B.6.9   L.L.L.L.L.L.",
"L.L.O , j ] ) &.*.&.W L I K P G b v M i.S.M.t 9 L.L.L.L.L.L.L.L.",
"L.L.O 2 1.h.O.J J J L L K K I ) 2.4.i.z.B.5.9   L.L.L.L.L.L.L.L.",
"L.L.o 2 1.h.O.J J J L L J I ` q.V.G.H.M.t 8 L.L.L.L.L.L.L.L.L.L.",
"L.L.O , j ] Y T J L L L I ..w.v.H.K.C.5.8   L.L.L.L.L.L.L.L.L.L.",
"L.L.L.L.% 6 g P P J P Y ` t.S.K.J.C.y 8 L.L.L.L.L.L.L.L.L.L.L.L.",
"L.L.L.L.X + u g Y U U X.t.z.x.N.N.5.8   L.L.L.L.L.L.L.L.L.L.L.L.",
"L.L.L.L.L.L.& 4 z =.{ j.D.B.t q q 0 L.L.L.L.L.L.L.L.L.L.L.L.L.L.",
"L.L.L.L.L.L.X # a l l v x.6.0 . o o L.L.L.L.L.L.L.L.L.L.L.L.L.L.",
"L.L.L.L.L.L.L.L.% , > 1 9 q L.L.L.L.L.L.L.L.L.L.L.L.L.L.L.L.L.L.",
"L.L.L.L.L.L.L.L.o O o o X o L.L.L.L.L.L.L.L.L.L.L.L.L.L.L.L.L.L.",
"L.L.L.L.L.L.L.L.L.L.L.L.L.L.L.L.L.L.L.L.L.L.L.L.L.L.L.L.L.L.L.L.",
"L.L.L.L.L.L.L.L.L.L.L.L.L.L.L.L.L.L.L.L.L.L.L.L.L.L.L.L.L.L.L.L.",
"L.L.L.L.L.L.L.L.L.L.L.L.L.L.L.L.L.L.L.L.L.L.L.L.L.L.L.L.L.L.L.L.",
"L.L.L.L.L.L.L.L.L.L.L.L.L.L.L.L.L.L.L.L.L.L.L.L.L.L.L.L.L.L.L.L."
};
