/* XPM */
static char *result[] = {
/* columns rows colors chars-per-pixel */
"32 32 178 2 ",
"   c #071116",
".  c #0B1415",
"X  c #0D1618",
"o  c #0D1919",
"O  c #0A1618",
"+  c #121B1B",
"@  c #1D1B1A",
"#  c #351A1A",
"$  c #38241F",
"%  c #36211D",
"&  c #351F24",
"*  c #2C2126",
"=  c #232C2F",
"-  c #2D252A",
";  c #392F23",
":  c #3F242D",
">  c #3E3123",
",  c #3E3C2B",
"<  c #303033",
"1  c #401F25",
"2  c #422126",
"3  c #40262E",
"4  c #433626",
"5  c #433E2C",
"6  c #462832",
"7  c #5B2E3C",
"8  c #5F3E32",
"9  c #602F3E",
"0  c #6D3D30",
"q  c #45412E",
"w  c #48422E",
"e  c #6B452D",
"r  c #674C30",
"t  c #6D5738",
"y  c #6F603C",
"u  c #72623F",
"i  c #3A3F42",
"p  c #6E3346",
"a  c #78374B",
"s  c #753548",
"d  c #3D4647",
"f  c #40494A",
"g  c #48454A",
"h  c #5A4D46",
"j  c #5C4743",
"k  c #5C5A4B",
"l  c #454F50",
"z  c #6A4650",
"x  c #7C5362",
"c  c #5C6769",
"v  c #6C7578",
"b  c #833628",
"n  c #8C2B36",
"m  c #AC2F3F",
"M  c #865B35",
"N  c #914234",
"B  c #B2413F",
"V  c #BF6C3F",
"C  c #B7723F",
"Z  c #CA513B",
"A  c #CF5F3B",
"S  c #DA5A38",
"D  c #D65939",
"F  c #DE693F",
"G  c #E2683B",
"H  c #993C4D",
"J  c #8A3B52",
"K  c #923D55",
"L  c #943F58",
"P  c #87384F",
"I  c #B53544",
"U  c #AE3040",
"Y  c #E8384B",
"T  c #97465A",
"R  c #8F4B49",
"E  c #AB4244",
"W  c #B84542",
"Q  c #A3545E",
"!  c #AB4F53",
"~  c #967E4E",
"^  c #AD7944",
"/  c #B47844",
"(  c #AF7E59",
")  c #935268",
"_  c #9D5D73",
"`  c #815665",
"'  c #AB6B7A",
"]  c #A57E7F",
"[  c #C34D41",
"{  c #C45B4C",
"}  c #D54C4B",
"|  c #E54549",
" . c #DE6F42",
".. c #C47745",
"X. c #DA7C4D",
"o. c #C56652",
"O. c #E77E49",
"+. c #EA684B",
"@. c #D0596A",
"#. c #C86F69",
"$. c #D97B62",
"%. c #E36676",
"&. c #98804E",
"*. c #B98048",
"=. c #B58E53",
"-. c #B6985A",
";. c #BB9B5C",
":. c #BA9356",
">. c #B39E6F",
",. c #C6874C",
"<. c #E98147",
"1. c #EC8449",
"2. c #F18648",
"3. c #F3924E",
"4. c #F79651",
"5. c #C8A25F",
"6. c #DDA65D",
"7. c #ECA95D",
"8. c #F6A157",
"9. c #DD8E63",
"0. c #C6A461",
"q. c #CBA762",
"w. c #D7B777",
"e. c #E6BB6C",
"r. c #E3B063",
"t. c #F1BD6C",
"y. c #F3B866",
"u. c #F2C36E",
"i. c #F2C571",
"p. c #F6C873",
"a. c #FACB74",
"s. c #F4C978",
"d. c #967C89",
"f. c #A97680",
"g. c #7F8C8F",
"h. c #838989",
"j. c #87908E",
"k. c #9B9688",
"l. c #92989B",
"z. c #8D9B9D",
"x. c #A99592",
"c. c #BAAA9E",
"v. c #A5A79A",
"b. c #9F9BA2",
"n. c #B99AA1",
"m. c #95A1A4",
"M. c #A1AFB4",
"N. c #AAB8BC",
"B. c #BEA4B2",
"V. c #D3BEB9",
"C. c #CCA2B0",
"Z. c #EECB86",
"A. c #EECC88",
"S. c #F1CD87",
"D. c #EDCF92",
"F. c #EDD092",
"G. c #EAD7AA",
"H. c #E9DDBC",
"J. c #B4C1C5",
"K. c #BCCACD",
"L. c #B8C7CC",
"P. c #BECDD1",
"I. c #DCCACB",
"U. c #D3CBD2",
"Y. c #CAD8DC",
"T. c #E7CAD1",
"R. c #E5E7D9",
"E. c #E5E9DE",
"W. c #D5E6EB",
"Q. c #D8E8EC",
"!. c #DFEFF3",
"~. c #E3EFF0",
"^. c #E3F0F4",
"/. c #E2F3FA",
"(. c #E6FAFE",
"). c #ECFBFF",
"_. c #E9F7FB",
"`. c None",
/* pixels */
"`.`.`.`.`.`.`.`.`.`.`.`.`.`.X X X X `.`.`.`.`.`.`.`.`.`.`.`.`.`.",
"`.`.`.`.`.`.`.`.`.`.`.`.`.`.5 q q 5 `.`.`.`.`.`.`.`.`.`.`.`.`.`.",
"`.`.`.`.`.`.`.`.`.`.X O O 5 ~ 5.>.&.5   O X `.`.`.`.`.`.`.`.`.`.",
"`.`.`.`.`.`.`.`.`.`.5 q 5 u q.a.a.q.u 5 q 5 `.`.`.`.`.`.`.`.`.`.",
"`.`.`.`.`.`.X .   , &.;.-.q.e.p.a.e.q.;.;.~ ,   . X `.`.`.`.`.`.",
"`.`.`.`.`.`.5 q 5 u q.a.a.i.i.u.u.u.i.a.a.q.u 5 q 5 `.`.`.`.`.`.",
"`.`.`.`.  , ~ ;.;.5.e.i.i.i.u.u.u.u.u.i.i.e.q.;.;.~ ,   `.`.`.`.",
"`.`.`.`., u q.a.a.i.i.i.i.i.A.F.D.S.p.u.u.i.i.a.a.q.u , `.`.`.`.",
"`.`.  , ~ 0.e.s.i.i.i.u.u.Z.H.R.R.H.Z.e.u.i.i.i.i.e.q.~ ,   `.`.",
"`.`., u q.a.p.u.i.i.u.i.Z.G.R././.E.G.Z.s.u.i.e.i.p.a.0.u , `.`.",
"X q ~ q.e.i.i.u.i.u.u.A.H.E.~././.~.E.H.A.i.i.i.u.i.i.e.q.~ 5 X ",
"X 5 :.u.i.i.i.u.i.u.u.D.R././.^.^././.R.D.u.u.i.u.i.i.i.i.:.w X ",
"X 4 / 7.i.i.i.i.i.i.u.D.R././.^.^.^./.E.D.u.u.i.i.u.i.t.7./ 5 + ",
"X 4 M / 6.t.i.i.i.e.u.A.H.Q.~././.~.E.H.A.u.u.i.i.i.t.6./ M > o ",
"`.`.; r *.7.t.p.i.u.u.s.Z.G.R././.E.G.Z.i.i.u.i.s.t.7.*.r > `.`.",
"`.`.O ; M ^ =.0.e.i.i.i.u.S.H.R.R.H.S.u.i.i.i.e.0.=.^ M ;   `.`.",
"`.`.`.`.> , , t 5.p.p.p.i.s.S.F.F.A.s.p.i.a.a.5.y 4 4 > `.`.`.`.",
"`.`.`.`.. o = k >.w.0.-.-.5.r.t.y.r.5.-.-.0.w.>.k = + . `.`.`.`.",
"`.`.`.`.. = c j.v.>.k , , t *.8.8.,.t , , k k.v.j.c = . `.`.`.`.",
"`.`.`.`.d c m.N.M.g.h 4 > e A O.<.V e > ; h h.M.N.m.c d `.`.`.`.",
"`.`.X f l.U.Y.Y.M.l.( / / V D D D A ..C C ( k.N.Y.Y.U.z.f . `.`.",
"`.`.. l J.).(.W.L.c.9.1.4.1. .D D F 1.3.2.9.c.L.W.(.(.J.l X `.`.",
"+ X . l J.)._.~.W.V.$.G 1.3.1.O.O.1.3.1.G $.V.W.!._.).J.l . `.`.",
"+ @ % j l.P.Q./._.I.#.Z  .1.O.O.<.<.<. .Z #.I./.(.W.K.l.f X `.`.",
"+ $ b N j v P.(.(.U.' U Z F S S D F F Z U ' U.(.(.K.v d `.`.`.`.",
"+ $ b b # i b.U.U.B._ H B B { { o.W Z I R _ C.T.T.n.z # `.`.`.`.",
"+ @ $ % @ < ` ' f._ T J E Q x.x.x.] Q H J T @.%.%.@.W n : o `.`.",
"+ + + . o * 7 a P J T J s z v h.l.d.) L ! ! } | Y Y Y m 2 o `.`.",
"`.`.`.`.`.`.* 6 a L L s 6 - < g x ) L T o.X.O.+.| Y Y m 2 o `.`.",
"`.`.`.`.`.`.X * 7 a J a 6 - * 2 7 p p R X.4.4.O.[ m m n 2 o `.`.",
"`.`.`.`.`.`.`.`.* 6 a J a p p 9 3 * * 8 ..4.4...0 1 2 : `.`.`.`.",
"`.`.`.`.`.`.`.`.o - p K K T T s * X X 4 / 4.4./ 4 O o o `.`.`.`."
};
