/* XPM */
static char *result[] = {
/* columns rows colors chars-per-pixel */
"32 32 158 2 ",
"   c #071116",
".  c #0C1415",
"X  c #0D1618",
"o  c #0C1A19",
"O  c #071318",
"+  c #131B1D",
"@  c #38181C",
"#  c #261F24",
"$  c #3F1F23",
"%  c #232C2F",
"&  c #2B282C",
"*  c #392F23",
"=  c #312329",
"-  c #3E3123",
";  c #3E3C2B",
":  c #303739",
">  c #422126",
",  c #433E2C",
"<  c #413626",
"1  c #572A34",
"2  c #6A272F",
"3  c #45412E",
"4  c #48422E",
"5  c #6B452D",
"6  c #674C30",
"7  c #6D5738",
"8  c #6F603C",
"9  c #72623F",
"0  c #343F40",
"q  c #763549",
"w  c #3C4647",
"e  c #40494A",
"r  c #584F45",
"t  c #5C5A4B",
"y  c #464F50",
"u  c #67444A",
"i  c #6F4857",
"p  c #5C6769",
"a  c #75737A",
"s  c #677577",
"d  c #8C2B36",
"f  c #AD313F",
"g  c #865B35",
"h  c #BF6C3F",
"j  c #B7723F",
"k  c #CA513B",
"l  c #CF5F3B",
"z  c #DA5A38",
"x  c #D65939",
"c  c #DE693F",
"v  c #E2683B",
"b  c #8D3649",
"n  c #963B4E",
"m  c #9B3D4E",
"M  c #903C52",
"N  c #AA3342",
"B  c #B43242",
"V  c #BA3342",
"C  c #B63A4C",
"Z  c #A13B52",
"A  c #A83E56",
"S  c #CE3A4E",
"D  c #C7384B",
"F  c #D2364A",
"G  c #DE374A",
"H  c #E6394C",
"J  c #EB394D",
"K  c #E8364A",
"L  c #AB4244",
"P  c #B44140",
"I  c #A4545E",
"U  c #967E4E",
"Y  c #AD7944",
"T  c #B07B46",
"R  c #AF7E59",
"E  c #8F4860",
"W  c #9A5E74",
"Q  c #AE6B77",
"!  c #B16A7C",
"~  c #C44D41",
"^  c #C55B4C",
"/  c #DE6F42",
"(  c #C56252",
")  c #E77F48",
"_  c #D65867",
"`  c #C86F69",
"'  c #D97B62",
"]  c #D26878",
"[  c #98804E",
"{  c #B98048",
"}  c #B58E53",
"|  c #B6985A",
" . c #BB9B5C",
".. c #BA9356",
"X. c #B39E6F",
"o. c #C6874C",
"O. c #E98147",
"+. c #EC8449",
"@. c #F18648",
"#. c #F2914E",
"$. c #C8A25F",
"%. c #DDA65D",
"&. c #ECA95D",
"*. c #F6A157",
"=. c #DD8E63",
"-. c #C6A461",
";. c #CBA762",
":. c #D7B777",
">. c #E6BB6C",
",. c #E3B063",
"<. c #F1BD6C",
"1. c #F3B866",
"2. c #F2C36E",
"3. c #F2C571",
"4. c #F6C873",
"5. c #FACB74",
"6. c #F4C978",
"7. c #A87F80",
"8. c #798A8C",
"9. c #838989",
"0. c #87908E",
"q. c #9B9688",
"w. c #8D9B9D",
"e. c #909B9D",
"r. c #AB9692",
"t. c #BAAA9E",
"y. c #A5A79A",
"u. c #BA9AA1",
"i. c #95A1A4",
"p. c #A1AFB4",
"a. c #BCA4B2",
"s. c #AAB8BC",
"d. c #D3BEB9",
"f. c #EECB86",
"g. c #EECC88",
"h. c #F1CD87",
"j. c #EDCF92",
"k. c #EDD092",
"l. c #EAD7AA",
"z. c #E9DDBC",
"x. c #B4C1C4",
"c. c #BCCBCE",
"v. c #B8C7CC",
"b. c #DCCACB",
"n. c #D5CAD2",
"m. c #CAD8DC",
"M. c #E2CAD2",
"N. c #E5E7D9",
"B. c #E5E9DE",
"V. c #D5E6EB",
"C. c #D7E8EB",
"Z. c #DFEFF3",
"A. c #E3EFF0",
"S. c #E3F0F4",
"D. c #E2F3FA",
"F. c #EBFBFF",
"G. c #E8F8FC",
"H. c None",
/* pixels */
"H.H.H.H.H.H.H.H.H.H.H.H.H.H.O X X X H.H.H.H.H.H.H.H.H.H.H.H.H.H.",
"H.H.H.H.H.H.H.H.H.H.H.H.H.H., 3 4 3 H.H.H.H.H.H.H.H.H.H.H.H.H.H.",
"H.H.H.H.H.H.H.H.H.H.X O   , [ $. .[ , O O X H.H.H.H.H.H.H.H.H.H.",
"H.H.H.H.H.H.H.H.H.H.3 3 , 9 ;.5.5.;.9 , 3 3 H.H.H.H.H.H.H.H.H.H.",
"H.H.H.H.H.H.X O   , U  .| -.>.3.5.>.-. . .U ;   O X H.H.H.H.H.H.",
"H.H.H.H.H.H., 3 , 9 ;.5.5.3.3.2.2.3.4.4.5.;.9 , 3 , H.H.H.H.H.H.",
"H.H.H.H.  ; U  . .-.>.3.3.3.3.2.2.2.3.4.3.>.$. . .U ;   H.H.H.H.",
"H.H.H.H.; 9 ;.5.5.3.3.2.2.6.f.j.k.g.3.3.3.3.3.5.5.;.9 ; H.H.H.H.",
"H.H.  ; U ;.>.3.4.3.3.2.2.f.z.N.N.z.f.2.2.3.3.3.3.>.;.U ;   H.H.",
"H.H.; 9 ;.5.3.2.3.3.3.3.f.l.B.D.D.B.l.f.3.3.3.2.3.4.5.;.9 ; H.H.",
"X 3 U ;.>.3.3.3.<.3.3.f.z.B.A.D.Z.Z.C.z.g.2.3.2.2.3.3.>.;.U , X ",
"X , ..2.3.3.3.3.3.2.2.j.N.D.D.S.A.D.D.N.j.2.2.2.3.3.3.3.2...3 X ",
"X < T &.<.3.3.2.3.2.2.j.N.D.D.A.A.D.D.N.j.2.2.3.2.3.3.<.&.T < + ",
"X < g { %.<.3.3.3.2.2.f.z.B.A.D.D.A.B.z.g.2.2.3.3.3.<.&.{ g - X ",
"H.H.* 6 { &.<.3.3.3.>.6.f.l.B.D.D.B.l.f.6.2.3.3.3.<.&.T 6 * H.H.",
"H.H.O * g T } -.>.3.3.3.3.g.z.N.B.z.g.2.3.3.3.>.-.} T g * O H.H.",
"H.H.H.H.- < ; 7 $.4.5.3.3.4.g.k.k.g.6.3.3.5.4.$.8 < < - H.H.H.H.",
"H.H.H.H.O o % t X.:.-.| | $.,.1.1.,.$.| | -.:.X.t % + . H.H.H.H.",
"H.H.H.H.O % p 0.y.q.t , , 7 } *.*.o.7 , , t q.y.0.p % . H.H.H.H.",
"H.H.H.H.e p i.s.p.9.r - - 5 l ) ) h 5 - * r 9.p.s.i.p e H.H.H.H.",
"H.H.. e e.c.m.m.p.q.} Y T l l x z l T h j R q.s.m.m.c.e.e . H.H.",
"H.H.. y x.F.F.V.c.t.=.) #.@./ x x v @.#.@.=.t.v.V.F.F.x.y . H.H.",
"H.H.. y x.G.G.A.V.d.' v @.#.+.) ) +.#.+.v ' d.V.A.G.F.x.y . H.H.",
"H.H.. e w.n.C.D.G.M.` k / ) ) ) ) O.O./ k ` b.G.G.V.c.e.e . H.H.",
"H.H.H.H.w s c.F.G.n.Q L k z z z z z z k L Q n.F.F.c.s w H.H.H.H.",
"H.H.H.H.@ u u.M.n.a.W n P ~ ^ ^ ( ^ ~ P n W a.n.M.u.u @ H.H.H.H.",
"H.H.+ > d C _ ] ! W E M m I q.r.r.q.I m M E W ! ] _ C d $ o H.H.",
"H.H.o > f J K F C Z m n q i a 9.7.a i q n Z m C F K J B > o H.H.",
"H.H.o > V J J G F S S N 1 & : w 0 : % 1 N S S F G J J B > o H.H.",
"H.H.+ > d B f V F H H V 1 # + X O o # 1 B H H F V f N d > + H.H.",
"H.H.H.H.> > = 2 V H H D b 1 # X X # 1 b D J K V 2 > > > H.H.H.H.",
"H.H.H.H.o . . > f H H S Z q = X + # q A S H J f = o o o H.H.H.H."
};
