/* XPM */
static char *result[] = {
/* columns rows colors chars-per-pixel */
"32 32 154 2 ",
"   c #111717",
".  c #141A1B",
"X  c #181E1C",
"o  c #1B1D20",
"O  c #271E23",
"+  c #192021",
"@  c #2F2227",
"#  c #332329",
"$  c #372C32",
"%  c #2D3636",
"&  c #343A3D",
"*  c #451E23",
"=  c #452126",
"-  c #4C2227",
";  c #4C2329",
":  c #433525",
">  c #493B29",
",  c #513D29",
"<  c #592B36",
"1  c #732830",
"2  c #642934",
"3  c #47412E",
"4  c #4A442F",
"5  c #4D4630",
"6  c #524A32",
"7  c #514630",
"8  c #7A4D31",
"9  c #725233",
"0  c #7D603C",
"q  c #6C3244",
"w  c #7A3548",
"e  c #374244",
"r  c #465050",
"t  c #4E5758",
"y  c #4A5153",
"u  c #6E4754",
"i  c #774F55",
"p  c #66594C",
"a  c #6E664F",
"s  c #7D6B43",
"d  c #656352",
"f  c #566164",
"g  c #70696F",
"h  c #677172",
"j  c #832934",
"k  c #A62F3D",
"l  c #805935",
"z  c #AD6B3D",
"x  c #BB693D",
"c  c #C7513C",
"v  c #D85F3B",
"b  c #D75D3B",
"n  c #CC613B",
"m  c #993849",
"M  c #923C51",
"N  c #8A3345",
"B  c #B33141",
"V  c #B33D4B",
"C  c #A43C52",
"Z  c #B63C52",
"A  c #CC364B",
"S  c #C8374A",
"D  c #DD374A",
"F  c #D7384B",
"G  c #E0374A",
"H  c #E2394C",
"J  c #9C404E",
"K  c #B14645",
"L  c #A0535B",
"P  c #8E7749",
"I  c #8E784A",
"U  c #907A4A",
"Y  c #A47643",
"T  c #B27E47",
"R  c #A67A5A",
"E  c #934A61",
"W  c #9F6075",
"Q  c #B66E7F",
"!  c #B27079",
"~  c #A47575",
"^  c #C45747",
"/  c #DD6C40",
"(  c #C46756",
")  c #E16F43",
"_  c #E67B45",
"`  c #D05968",
"'  c #CF6C7C",
"]  c #C97770",
"[  c #AE884F",
"{  c #AD8850",
"}  c #AE9156",
"|  c #B39458",
" . c #97927C",
".. c #AC996E",
"X. c #BC9F63",
"o. c #C19E5D",
"O. c #C3854B",
"+. c #E68248",
"@. c #EC894A",
"#. c #EA8147",
"$. c #EF9C54",
"%. c #C3A05E",
"&. c #DBA25B",
"*. c #E1A45B",
"=. c #D68767",
"-. c #C3A160",
";. c #DDAC63",
":. c #DFB668",
">. c #CAAE73",
",. c #E1B76A",
"<. c #E2B96A",
"1. c #ECBC6B",
"2. c #E9B668",
"3. c #F0B668",
"4. c #EEC16F",
"5. c #F0C26E",
"6. c #EEC372",
"7. c #EFC678",
"8. c #F2C471",
"9. c #767F81",
"0. c #858A86",
"q. c #9F968D",
"w. c #869295",
"e. c #909C9F",
"r. c #B79199",
"t. c #A78A86",
"y. c #A0A192",
"u. c #BDA99C",
"i. c #B89AA9",
"p. c #9FABAD",
"a. c #A7B4B7",
"s. c #A9B5B8",
"d. c #D1B8B2",
"f. c #EDCB8A",
"g. c #F0CE8C",
"h. c #ECCF95",
"j. c #E9D8AE",
"k. c #E8DAB5",
"l. c #CEBDC5",
"z. c #D5BEC7",
"x. c #B4C2C5",
"c. c #BAC6C9",
"v. c #D8C2C2",
"b. c #C0CFD4",
"n. c #C6D4D7",
"m. c #E5E3D0",
"M. c #E5E6D9",
"N. c #D3E2E6",
"B. c #DDEEF2",
"V. c #E2EEED",
"C. c #E2EFF3",
"Z. c #E2F1F6",
"A. c #E4F5F9",
"S. c None",
/* pixels */
"S.S.S.S.S.S.S.S.S.S.S.S.S.S.. . . . S.S.S.S.S.S.S.S.S.S.S.S.S.S.",
"S.S.S.S.S.S.S.S.S.S.S.S.S.S.3 5 5 3 S.S.S.S.S.S.S.S.S.S.S.S.S.S.",
"S.S.S.S.S.S.S.S.S.S.. . X 5 U | | U 5 X . . S.S.S.S.S.S.S.S.S.S.",
"S.S.S.S.S.S.S.S.S.S.5 5 6 s %.4.4.%.s 6 5 3 S.S.S.S.S.S.S.S.S.S.",
"S.S.S.S.S.S.. . X 4 U } | o.,.8.8.<.%.| } P 4 X . . S.S.S.S.S.S.",
"S.S.S.S.S.S.3 5 6 s %.1.5.4.5.5.5.5.4.8.4.%.s 6 5 4 S.S.S.S.S.S.",
"S.S.S.S.X 4 P } | %.<.8.8.8.8.6.8.8.8.8.8.,.%.| } P 5 X S.S.S.S.",
"S.S.S.S.4 P | 4.6.8.5.5.5.7.f.h.h.f.7.5.5.4.4.6.1.%.s 4 S.S.S.S.",
"S.S.X 4 P o.<.8.8.8.8.5.8.f.k.m.m.k.f.6.5.8.8.8.8.<.%.P 4 X S.S.",
"S.S.5 s %.4.8.5.8.8.8.7.f.j.M.C.Z.M.j.f.7.8.8.5.5.6.4.%.s 5 S.S.",
". 3 P %.<.8.8.5.4.5.5.f.k.M.V.Z.Z.V.M.k.f.5.5.4.4.8.8.<.%.P 3 . ",
". 4 { 2.5.4.8.8.4.4.8.h.m.C.Z.C.C.Z.Z.m.h.8.5.4.4.8.8.5.2.[ 4 . ",
". > Y *.3.8.5.5.4.5.8.h.m.C.Z.Z.C.Z.C.m.h.8.5.5.5.5.5.3.*.T 3   ",
". : l T &.1.5.8.5.5.5.g.k.M.V.Z.Z.V.M.k.f.8.5.5.5.5.3.&.T 8 : . ",
"S.S.: 9 T &.2.4.5.8.6.7.f.k.M.Z.Z.M.j.f.7.5.5.4.4.2.&.[ 9 : S.S.",
"S.S.X : l Y [ o.:.5.8.5.8.g.k.m.m.k.g.8.8.8.5.,.%.[ Y l : X S.S.",
"S.S.S.S.: > 5 s %.4.4.4.4.7.f.h.h.f.7.1.4.5.4.%.s 7 > $ S.S.S.S.",
"S.S.S.S.  + % d ..>.X.} } o.;.3.3.;.| } } %.>...d % +   S.S.S.S.",
"S.S.S.S.. % t 0.y. .a 6 7 0 O.$.$.| l 6 7 a  .y.0.f % . S.S.S.S.",
"S.S.S.S.r h p.s.p.0.p , , 8 x _ _ n 8 7 7 p 0.p.a.e.h r S.S.S.S.",
"S.S.X r w.x.n.c.s.q.R z T c n v v n x z z R q.s.c.n.x.w.y X S.S.",
"S.S.o t a.C.A.N.c.u.=.+.@._ / v v / #.@.+.=.u.c.N.A.V.a.t X S.S.",
"S.S.o t s.C.A.V.N.d.=.) _ @._ ) _ #.@.#.) =.d.N.Z.A.Z.a.t X S.S.",
"S.S.S.e w.x.N.A.Z.v.] ^ ) _ _ ) _ _ _ / c ] v.Z.A.N.x.w.r S.S.S.",
"S.S.S.S.y 9.c.Z.C.l.! K ^ b / b v v b c K ! l.C.Z.c.9.y S.S.S.S.",
"S.S.S.S.; i r.v.l.i.W m k ^ T ( ( ^ ^ K m W i.z.z.r.i * S.S.S.S.",
"S.S.S.= j K ` ' Q W E M J L ~ t.t.~ L M J E W Q ' ` K j * S.S.S.",
"S.S.+ ; B H H A Z C C m N u g 9.9.g u w M C C Z F H H m ; X S.S.",
"S.S.X ; m D D D A A S m < $ & e e & $ < m A A A F G D k ; X S.S.",
"S.S.. = j k k k F H D B 2 @ o . . o @ 2 B G D A k k k j * X S.S.",
"S.S.S.S.* * - 1 B G G Z N < O     O < N S G H k 1 - = = S.S.S.S.",
"S.S.S.S..   . - k G H S C q # .   @ q C F H H k - X . . S.S.S.S."
};
