/* XPM */
static char *result[] = {
/* columns rows colors chars-per-pixel */
"32 32 194 2 ",
"   c #060D0D",
".  c #071116",
"X  c #0C1415",
"o  c #061418",
"O  c #0D1618",
"+  c #0D1919",
"@  c #0C1817",
"#  c #171A1B",
"$  c #371F1D",
"%  c #39231F",
"&  c #141F21",
"*  c #2E1D22",
"=  c #351E22",
"-  c #3A1E22",
";  c #2D2127",
":  c #2F2329",
">  c #312329",
",  c #382624",
"<  c #3D3224",
"1  c #3E3C2C",
"2  c #2C3435",
"3  c #2D3839",
"4  c #2D3739",
"5  c #333B3C",
"6  c #322C32",
"7  c #401F24",
"8  c #462427",
"9  c #423325",
"0  c #433E2C",
"q  c #5D303F",
"w  c #4D322F",
"e  c #663829",
"r  c #7C2D3E",
"t  c #45412E",
"y  c #48422E",
"u  c #434235",
"i  c #68492E",
"p  c #72623F",
"a  c #5F3140",
"s  c #4B3D43",
"d  c #683242",
"f  c #7D3042",
"g  c #743649",
"h  c #713447",
"j  c #7A3E51",
"k  c #3C4446",
"l  c #3F484A",
"z  c #464848",
"x  c #4B5355",
"c  c #575358",
"v  c #554F45",
"b  c #66484D",
"n  c #615343",
"m  c #726340",
"M  c #7B5563",
"N  c #5C686B",
"B  c #636D6F",
"V  c #677376",
"C  c #9E392A",
"Z  c #8B2C37",
"A  c #9F2F3E",
"S  c #9F303F",
"D  c #823529",
"F  c #A12F3E",
"G  c #885C35",
"H  c #A84B32",
"J  c #B24A32",
"K  c #B55235",
"L  c #96623A",
"P  c #A56C3B",
"I  c #A6683B",
"U  c #B66E3F",
"Y  c #DD5B39",
"T  c #CD5337",
"R  c #E25E3C",
"E  c #DE653E",
"W  c #C16A3F",
"Q  c #E1693F",
"!  c #843547",
"~  c #9D3B53",
"^  c #A93747",
"/  c #B33240",
"(  c #AA3B54",
")  c #D83A50",
"_  c #A3534F",
"`  c #967E4E",
"'  c #B57E46",
"]  c #B87F45",
"[  c #A57954",
"{  c #895667",
"}  c #965469",
"|  c #A65B6D",
" . c #8A6373",
".. c #81757D",
"X. c #A5656E",
"o. c #C44C5E",
"O. c #C97B46",
"+. c #D16F4C",
"@. c #E57845",
"#. c #C95868",
"$. c #98804E",
"%. c #BB9B5C",
"&. c #BA9356",
"*. c #B88148",
"=. c #988B7D",
"-. c #AF8B6E",
";. c #B7A274",
":. c #C68F5F",
">. c #C88F5E",
",. c #D78559",
"<. c #DE9851",
"1. c #DA9458",
"2. c #DF974F",
"3. c #EA8248",
"4. c #F2894B",
"5. c #F2924C",
"6. c #E29A53",
"7. c #E89F56",
"8. c #DAA45C",
"9. c #C7A35E",
"0. c #E4A45A",
"q. c #CA9161",
"w. c #C79060",
"e. c #D49660",
"r. c #D58C6D",
"t. c #E09C69",
"y. c #C7A460",
"u. c #CBA762",
"i. c #ECB666",
"p. c #E6BB6C",
"a. c #EDBA6A",
"s. c #EDB768",
"d. c #F4BC6A",
"f. c #E5AA75",
"g. c #EDBD70",
"h. c #E2AC64",
"j. c #EFC16E",
"k. c #F2C36F",
"l. c #F1C471",
"z. c #FACB74",
"x. c #F6C873",
"c. c #7E7B83",
"v. c #A87985",
"b. c #7A8788",
"n. c #838E90",
"m. c #8D999C",
"M. c #979896",
"N. c #858C8C",
"B. c #B49885",
"V. c #B58D9D",
"C. c #A69E92",
"Z. c #A89E91",
"A. c #AA959C",
"S. c #A8948F",
"D. c #A7A195",
"F. c #9C99A0",
"G. c #A89BA3",
"H. c #B09EA7",
"J. c #99A6AA",
"K. c #9DAAAE",
"L. c #98A3A5",
"P. c #9CABB1",
"I. c #A0ACAF",
"U. c #B8B3A5",
"Y. c #A1ADB0",
"T. c #A6B5BA",
"R. c #AAB7BA",
"E. c #ACBABD",
"W. c #A8B4B7",
"Q. c #B7B2B1",
"!. c #D0B3B0",
"~. c #EECA86",
"^. c #F3D495",
"/. c #E7D9B9",
"(. c #ECD9AC",
"). c #C0B7C0",
"_. c #BAC7CB",
"`. c #BECDD3",
"'. c #C3D2D7",
"]. c #C7D6DA",
"[. c #D6D4DC",
"{. c #DAD6DE",
"}. c #D1CBC8",
"|. c #E6DED2",
" X c #ECE9DA",
".X c #D1DFE2",
"XX c #D2E1E5",
"oX c #D7E7EB",
"OX c #DBECF2",
"+X c #E9EEE4",
"@X c #E2EBF1",
"#X c #E7F5F9",
"$X c #E7F6F9",
"%X c None",
/* pixels */
"%X%X%X%X%X%X%X%X%X%X%X%X%X%XO O O O %X%X%X%X%X%X%X%X%X%X%X%X%X%X",
"%X%X%X%X%X%X%X%X%X%X%X%X%X%X0 t y 0 %X%X%X%X%X%X%X%X%X%X%X%X%X%X",
"%X%X%X%X%X%X%X%X%X%XO X o 0 ` 9.%.` 0 o o O %X%X%X%X%X%X%X%X%X%X",
"%X%X%X%X%X%X%X%X%X%X0 t 0 p u.z.z.u.p 0 t 0 %X%X%X%X%X%X%X%X%X%X",
"%X%X%X%X%X%XX X X 1 ` %.%.y.p.l.z.p.9.%.%.` 1 . X O %X%X%X%X%X%X",
"%X%X%X%X%X%Xl z u p u.z.z.l.l.l.l.l.x.x.z.u.p 0 t 0 %X%X%X%X%X%X",
"%X%X%X%X  l m.U.;.y.p.l.l.l.l.j.l.l.l.x.x.p.y.%.%.` 1 . %X%X%X%X",
"%X%X%X%Xk V `.+X^.x.l.l.l.l.l.l.l.l.l.l.k.l.l.z.z.u.p 0 %X%X%X%X",
"%X%X  k m._.oX X^.x.k.l.j.l.l.l.j.l.l.l.l.l.l.x.l.p.u.` 1 . %X%X",
"%X%Xl V '.$X+X/.~.l.k.l.l.l.l.l.l.l.l.l.l.l.l.j.l.x.z.u.m 1 %X%X",
"X l m.`.oX+X(.~.l.l.k.l.l.l.l.l.l.l.l.l.l.l.l.l.l.l.x.p.u.` 0 O ",
"X z U. X|./.~.k.l.l.l.l.l.j.l.l.l.l.l.l.j.l.l.l.l.j.a.d.d.&.y O ",
"X 0 -.f.f.h.a.x.l.l.l.l.l.l.l.l.l.l.l.j.l.l.l.l.l.s.0.6.7.' 0 O ",
"O < G P I ' 8.a.s.s.s.a.l.l.l.l.l.l.l.l.l.j.a.i.s.8.' P P G < O ",
"%X%X< < 9 i *.7.6.6.6.0.s.l.l.l.l.l.l.l.l.a.0.<.6.*.i < < 9 %X%X",
"%X%XO O o < I W ' L P *.8.s.s.i.i.i.i.p.i.h.e.w.q.[ v 2 & O %X%X",
"%X%X%X%Xo % H K e < % i ' 6.6.<.<.<.<.<.6.1.B.D.D.M.N.N 2 X %X%X",
"%X%X%X%X9 e K K e * % e [ q.q.:.:.:.:.:.q.-.D.P.J.K.Y.b.5 @ %X%X",
"%X%X@ 9 L ,.3.+.H C C _ -.A.Z.Z.C.C.C.C.Z.C.L.J.J.K.I.b.5 O %X%X",
"%X%XX 9 U 3.@.@.E Y +.+.S.P.R.E.E.T.K.K.R.R.I.J.J.K.K.b.5 @ %X%X",
"%X%X# 9 H R Y Y @.3.3.,.S.W.'..XXX'.T.T.'.'.R.L.L.K.Y.b.5 X %X%X",
"%X%XO % D J T @.3.5.5.t.U.'..X#X#X.XR.R.XXoX_.E.Y.L.N.B 5 X %X%X",
"%X%X%X%X% e +.4.5.4.5.f.}.oX@X#X#X.XR.R.XX#XoX].E.n.c 2 %X%X%X%X",
"%X%X%X%Xo < G O.1.1.,.r.!..X@X#X#XXXR.R.XX@X{.Q.m.B 2 X %X%X%X%X",
"%X%X%X%X%X%X9 n =.B.X._ | V..X$X$X.XE.E..X{.V.M z 5 %X%X%X%X%X%X",
"%X%X%X%X%X%XX 4 B c. .} ~ | G.).'.).G.F.R.H.| r = X %X%X%X%X%X%X",
"%X%X%X%X%X%X%X%X4 x c.v.o.^ b c  .X.} M c b ^ ^ 7 X %X%X%X%X%X%X",
"%X%X%X%X%X%X%X%XX 5 b.A.#.A $ * f ( ( ! * - ^ ^ 8 O %X%X%X%X%X%X",
"%X%X%X%X%X%X%X%XX 5 b.A.| f * = ^ ) ) ! - * ! ! , + %X%X%X%X%X%X",
"%X%X%X%X%X%X%X%XO 5 V ..{ h * = Z / F Z w 8 a a : # %X%X%X%X%X%X",
"%X%X%X%X%X%X%X%X%X%X4 s j h > * - 7 8 q d d 6 ; %X%X%X%X%X%X%X%X",
"%X%X%X%X%X%X%X%X%X%Xo * h g - O O X X $ g g > + %X%X%X%X%X%X%X%X"
};
