/* XPM */
static char *result[] = {
/* columns rows colors chars-per-pixel */
"32 32 192 2 ",
"   c #060D0D",
".  c #071116",
"X  c #0C1415",
"o  c #061418",
"O  c #0D1618",
"+  c #0E191A",
"@  c #0C1817",
"#  c #121B1B",
"$  c #161918",
"%  c #341E1C",
"&  c #3C231D",
"*  c #36221E",
"=  c #141F21",
"-  c #2A1F25",
";  c #2C2126",
":  c #242E2F",
">  c #3D2520",
",  c #372926",
"<  c #3D3224",
"1  c #3E3C2C",
"2  c #262F31",
"3  c #2D3839",
"4  c #333B3C",
"5  c #412621",
"6  c #442B22",
"7  c #423325",
"8  c #433E2C",
"9  c #5C2F3E",
"0  c #4E3631",
"q  c #663829",
"w  c #7C3326",
"e  c #45412E",
"r  c #48422E",
"t  c #434235",
"y  c #68492E",
"u  c #72623F",
"i  c #4A3D44",
"p  c #6F3346",
"a  c #76374A",
"s  c #7B3E51",
"d  c #3C4446",
"f  c #3F484A",
"g  c #434947",
"h  c #4C5456",
"j  c #554F4D",
"k  c #65524A",
"l  c #726340",
"z  c #7D5463",
"x  c #5C686A",
"c  c #687477",
"v  c #717176",
"b  c #843629",
"n  c #9E392A",
"m  c #A43E2C",
"M  c #885C35",
"N  c #A6402E",
"B  c #A84B32",
"V  c #B34A34",
"C  c #B55235",
"Z  c #96623A",
"A  c #A56C3B",
"S  c #A6683B",
"D  c #B66E3F",
"F  c #DD4C34",
"G  c #DD5B39",
"H  c #CD5337",
"J  c #E25E3C",
"K  c #DE653E",
"L  c #C16A3F",
"P  c #E1693F",
"I  c #8D3D55",
"U  c #863C53",
"Y  c #923C55",
"T  c #9D3B52",
"R  c #943E58",
"E  c #B8374D",
"W  c #A33C53",
"Q  c #BE3B50",
"!  c #CF384D",
"~  c #D5364A",
"^  c #E03549",
"/  c #9E4359",
"(  c #A3534F",
")  c #967E4E",
"_  c #B57E46",
"`  c #B87F45",
"'  c #A57954",
"]  c #B26B5E",
"[  c #97566A",
"{  c #8F4D62",
"}  c #A85C6E",
"|  c #8A6373",
" . c #A1687B",
".. c #AA6563",
"X. c #C1475A",
"o. c #C97B46",
"O. c #CD6B56",
"+. c #D77042",
"@. c #E57845",
"#. c #D55665",
"$. c #C04F61",
"%. c #98804E",
"&. c #BB9B5C",
"*. c #BA9356",
"=. c #B88148",
"-. c #988B7D",
";. c #AF8B6E",
":. c #B7A274",
">. c #C68F5F",
",. c #C88F5E",
"<. c #D78559",
"1. c #DE9851",
"2. c #DA9458",
"3. c #DF974F",
"4. c #EA8248",
"5. c #F2894B",
"6. c #F2924C",
"7. c #E29A53",
"8. c #E89F56",
"9. c #DAA45C",
"0. c #C7A35E",
"q. c #E4A45A",
"w. c #CA9161",
"e. c #C79060",
"r. c #D49660",
"t. c #D58C6D",
"y. c #E09C69",
"u. c #C7A460",
"i. c #CBA762",
"p. c #ECB666",
"a. c #E6BB6C",
"s. c #EDBA6A",
"d. c #EDB768",
"f. c #F4BC6A",
"g. c #E5AA75",
"h. c #E8B56A",
"j. c #F2C36F",
"k. c #F1C471",
"l. c #FACB74",
"z. c #F6C873",
"x. c #EFC16E",
"c. c #7E7B83",
"v. c #A67A86",
"b. c #798688",
"n. c #838E91",
"m. c #8D999C",
"M. c #9D9998",
"N. c #858C8C",
"B. c #B49885",
"V. c #A69E92",
"C. c #A89E91",
"Z. c #B19299",
"A. c #AD9096",
"S. c #A7A195",
"D. c #B9A19D",
"F. c #A49AA2",
"G. c #99A6AA",
"H. c #9DAAAE",
"J. c #98A3A5",
"K. c #9CABB1",
"L. c #A0ACAF",
"P. c #B8B3A5",
"I. c #A7B4B7",
"U. c #A6B5BA",
"Y. c #ABB7BA",
"T. c #ABB9BD",
"R. c #A9B0B5",
"E. c #A9ADAA",
"W. c #C9ABB0",
"Q. c #EECA86",
"!. c #F3D495",
"~. c #E7D9B9",
"^. c #ECD9AC",
"/. c #C1B7C0",
"(. c #BBC7CB",
"). c #BECDD3",
"_. c #D9CDC5",
"`. c #C3D2D7",
"'. c #CCDBDF",
"]. c #D4D4DC",
"[. c #D0CAD2",
"{. c #E6DED2",
"}. c #ECE9DA",
"|. c #D1DFE3",
" X c #D2E1E5",
".X c #D9E7EB",
"XX c #DBECF2",
"oX c #E9EEE4",
"OX c #E6F5F9",
"+X c #EAFAFE",
"@X c #E7F6F9",
"#X c None",
/* pixels */
"#X#X#X#X#X#X#X#X#X#X#X#X#X#XO O O O #X#X#X#X#X#X#X#X#X#X#X#X#X#X",
"#X#X#X#X#X#X#X#X#X#X#X#X#X#Xe r r e #X#X#X#X#X#X#X#X#X#X#X#X#X#X",
"#X#X#X#X#X#X#X#X#X#XO o . 8 %.&.&.%.8 . . + #X#X#X#X#X#X#X#X#X#X",
"#X#X#X#X#X#X#X#X#X#X8 e 8 l i.l.l.i.l 8 e 8 #X#X#X#X#X#X#X#X#X#X",
"#X#X#X#X#X#XO . . 1 ) &.&.u.a.z.l.a.0.&.&.) 8 . . X #X#X#X#X#X#X",
"#X#X#X#X#X#Xe e e l i.l.z.k.k.k.k.k.z.z.l.i.u t g g #X#X#X#X#X#X",
"#X#X#X#X. 1 ) &.&.u.a.k.z.k.k.x.k.k.k.z.z.a.0.:.P.m.g   #X#X#X#X",
"#X#X#X#X1 u i.l.z.z.k.k.k.k.k.x.k.k.k.k.x.j.j.!.oX).c d #X#X#X#X",
"#X#X. 1 %.u.a.z.k.k.k.k.k.k.k.k.k.k.k.x.k.j.k.!.}.XX).m.d   #X#X",
"#X#X1 u i.z.k.k.k.k.k.k.k.k.k.k.k.k.k.k.k.k.j.Q.~.oX@X).c d #X#X",
"O e ) i.x.k.k.j.k.k.k.k.k.k.k.k.k.k.k.k.k.j.k.k.Q.^.oXXX).m.g X ",
"O r *.f.f.s.j.k.k.k.k.k.x.k.k.k.k.x.k.k.k.k.k.j.j.Q.~.{.}.P.g X ",
"O 7 _ q.8.q.s.k.k.k.k.k.k.k.k.k.k.x.x.k.k.k.k.k.j.s.g.g.g.;.7 X ",
"+ < M A S _ 9.d.p.s.k.k.k.k.k.k.k.k.k.x.f.s.p.s.s.9.=.A S M < + ",
"#X#X< 7 < y ` 3.1.q.s.k.k.k.k.k.k.k.k.s.q.7.7.7.7.=.y < 7 < #X#X",
"#X#X+ = 2 j ' e.e.r.9.s.p.p.p.p.p.s.a.9.=.Z A D o.S < o X + #X#X",
"#X#X$ 2 x N.V.S.S.B.r.7.7.1.1.1.1.7.7._ y , < q B B 5 X #X#X#X#X",
"#X#XX 4 b.L.G.G.K.S.;.>.>.>.>.>.>.e.e.' q % * q C C y 7 #X#X#X#X",
"#X#XX 4 b.L.L.G.H.J.V.V.C.C.V.V.V.S.S.;.( m m V K 4.,.Z 7 + #X#X",
"#X#XX 4 b.L.L.G.G.L.U.U.H.H.U.T.T.U.K.A.O.G G +.@.4.P D 7 + #X#X",
"#X#XX 4 b.L.L.G.G.I.`.`.I.I.`.|. X).I.C.<.4.4.@.K G J B 6 + #X#X",
"#X#XX 4 c N.m.L.R.(..X XT.Y.|.OXOX.X).P.y.6.6.4.P H V b & # #X#X",
"#X#X#X#X3 h N.Y.`..XOX'.Y.Y.|.OXOXXX.X_.g.6.6.5.5.D q > #X#X#X#X",
"#X#X#X#XX : x J.'.+X@X XT.Y.|.OXOXXX].W.t.<.2.2.o.Z < o #X#X#X#X",
"#X#X#X#X$ = 2 x (.+X+X.XT.T.|.+XOX[.A.} ( ..B.-.k < #X#X#X#X#X#X",
"#X#X#X#X$ $ % k D._./.R.M.F./.[.[.W.} W [ | v c 3 . #X#X#X#X#X#X",
"#X#X#X#X+ * w V O...k h z [  . .v.} ! } v.c.h 3 #X#X#X#X#X#X#X#X",
"#X#X#X#X+ 6 m F F m 5 - p Y Y I T E ~ #.Z.b.3 X #X#X#X#X#X#X#X#X",
"#X#X#X#X+ 5 m F F m 5 - p R I T E ~ ^ #.Z.b.d . #X#X#X#X#X#X#X#X",
"#X#X#X#X+ 5 b m m b > - p a U T E ~ ! X.v.v i ; #X#X#X#X#X#X#X#X",
"#X#X#X#X#X#X5 5 , > #X#X- , a R T W W / { { s 9 ; # #X#X#X#X#X#X",
"#X#X#X#X#X#X+ + + = #X#XO ; p R I I I I I Y R a ; # #X#X#X#X#X#X"
};
