/* XPM */
static char *result[] = {
/* columns rows colors chars-per-pixel */
"32 32 194 2 ",
"   c #060D0D",
".  c #071116",
"X  c #0C1415",
"o  c #061418",
"O  c #0D1618",
"+  c #0D1919",
"@  c #0C1817",
"#  c #171A1B",
"$  c #371F1D",
"%  c #39231F",
"&  c #141F21",
"*  c #2E1D22",
"=  c #351E22",
"-  c #3A1E22",
";  c #2D2127",
":  c #2F2329",
">  c #312329",
",  c #382624",
"<  c #3D3224",
"1  c #3E3C2C",
"2  c #2C3435",
"3  c #2D3839",
"4  c #2D3739",
"5  c #333B3C",
"6  c #322C32",
"7  c #401F24",
"8  c #462427",
"9  c #423325",
"0  c #433E2C",
"q  c #5D303F",
"w  c #4D322F",
"e  c #663829",
"r  c #7C2D3E",
"t  c #45412E",
"y  c #48422E",
"u  c #434235",
"i  c #68492E",
"p  c #72623F",
"a  c #5F3140",
"s  c #4B3D43",
"d  c #683242",
"f  c #7D3042",
"g  c #743649",
"h  c #713447",
"j  c #7A3E51",
"k  c #3C4446",
"l  c #3F484A",
"z  c #464848",
"x  c #4B5355",
"c  c #575358",
"v  c #554F45",
"b  c #66484D",
"n  c #615343",
"m  c #726340",
"M  c #7B5563",
"N  c #5C686B",
"B  c #636D6F",
"V  c #677376",
"C  c #9E392A",
"Z  c #8B2C37",
"A  c #9F2F3E",
"S  c #9F303F",
"D  c #823529",
"F  c #A12F3E",
"G  c #885C35",
"H  c #A84B32",
"J  c #B24A32",
"K  c #B55235",
"L  c #96623A",
"P  c #A56C3B",
"I  c #A6683B",
"U  c #B66E3F",
"Y  c #DD5B39",
"T  c #CD5337",
"R  c #E25E3C",
"E  c #DE653E",
"W  c #C16A3F",
"Q  c #E1693F",
"!  c #843547",
"~  c #9D3B53",
"^  c #A93747",
"/  c #B33240",
"(  c #AA3B54",
")  c #D83A50",
"_  c #A3534F",
"`  c #967E4E",
"'  c #B57E46",
"]  c #B87F45",
"[  c #A57954",
"{  c #895667",
"}  c #965469",
"|  c #A65B6D",
" . c #8A6373",
".. c #81757D",
"X. c #A5656E",
"o. c #C44C5E",
"O. c #C97B46",
"+. c #D16F4C",
"@. c #E57845",
"#. c #C95868",
"$. c #98804E",
"%. c #BB9B5C",
"&. c #BA9356",
"*. c #B88148",
"=. c #988B7D",
"-. c #AF8B6E",
";. c #B7A274",
":. c #C68F5F",
">. c #C88F5E",
",. c #D78559",
"<. c #DE9851",
"1. c #DA9458",
"2. c #DF974F",
"3. c #EA8248",
"4. c #F2894B",
"5. c #F2924C",
"6. c #E29A53",
"7. c #E89F56",
"8. c #DAA45C",
"9. c #C7A35E",
"0. c #E4A45A",
"q. c #CA9161",
"w. c #C79060",
"e. c #D49660",
"r. c #D58C6D",
"t. c #E09C69",
"y. c #C7A460",
"u. c #CBA762",
"i. c #ECB666",
"p. c #E6BB6C",
"a. c #EDBA6A",
"s. c #EDB768",
"d. c #F4BC6A",
"f. c #E5AA75",
"g. c #EDBD70",
"h. c #E2AC64",
"j. c #EFC16E",
"k. c #F2C36F",
"l. c #F1C471",
"z. c #FACB74",
"x. c #F6C873",
"c. c #7E7B83",
"v. c #A87985",
"b. c #7A8788",
"n. c #838E90",
"m. c #8D999C",
"M. c #979896",
"N. c #858C8C",
"B. c #B49885",
"V. c #B58D9D",
"C. c #A69E92",
"Z. c #A89E91",
"A. c #AA959C",
"S. c #A8948F",
"D. c #A7A195",
"F. c #9C99A0",
"G. c #A89BA3",
"H. c #B09EA7",
"J. c #99A6AA",
"K. c #9DAAAE",
"L. c #98A3A5",
"P. c #9CABB1",
"I. c #A0ACAF",
"U. c #B8B3A5",
"Y. c #A1ADB0",
"T. c #A6B5BA",
"R. c #AAB7BA",
"E. c #ACBABD",
"W. c #A8B4B7",
"Q. c #B7B2B1",
"!. c #D0B3B0",
"~. c #EECA86",
"^. c #F3D495",
"/. c #E7D9B9",
"(. c #ECD9AC",
"). c #C0B7C0",
"_. c #BAC7CB",
"`. c #BECDD3",
"'. c #C3D2D7",
"]. c #C7D6DA",
"[. c #D6D4DC",
"{. c #DAD6DE",
"}. c #D1CBC8",
"|. c #E6DED2",
" X c #ECE9DA",
".X c #D1DFE2",
"XX c #D2E1E5",
"oX c #D7E7EB",
"OX c #DBECF2",
"+X c #E9EEE4",
"@X c #E2EBF1",
"#X c #E7F5F9",
"$X c #E7F6F9",
"%X c None",
/* pixels */
"%X%X%X%X%X%X%X%X%X%X%X%X%X%XO O O O %X%X%X%X%X%X%X%X%X%X%X%X%X%X",
"%X%X%X%X%X%X%X%X%X%X%X%X%X%X0 t t 0 %X%X%X%X%X%X%X%X%X%X%X%X%X%X",
"%X%X%X%X%X%X%X%X%X%XO o . 0 $.9.9.` 0 o . O %X%X%X%X%X%X%X%X%X%X",
"%X%X%X%X%X%X%X%X%X%X0 t 0 m u.z.z.u.m 0 t 0 %X%X%X%X%X%X%X%X%X%X",
"%X%X%X%X%X%XO . o 1 ` %.%.y.p.l.x.p.9.%.%.` 0 . . X %X%X%X%X%X%X",
"%X%X%X%X%X%Xt t t m u.z.x.l.l.l.g.l.x.x.z.u.p u z z %X%X%X%X%X%X",
"%X%X%X%X. 1 ` %.%.y.p.x.l.l.l.j.l.l.l.x.x.p.9.;.U.m.z   %X%X%X%X",
"%X%X%X%X1 p u.z.z.l.l.l.l.l.l.l.l.l.l.l.j.l.k.^.+X`.V k %X%X%X%X",
"%X%X. 1 ` u.p.x.l.l.l.l.j.l.l.l.l.l.l.j.j.l.l.^. XOX`.m.k   %X%X",
"%X%X1 p u.z.l.l.l.l.l.l.l.l.l.l.l.l.l.l.l.l.j.~./.+X$X`.V k %X%X",
"O t ` u.p.x.l.l.j.l.l.l.l.l.l.l.l.l.l.l.l.l.l.l.~.(.+XOX`.m.l @ ",
"O y &.d.d.a.j.l.l.l.l.j.j.l.l.l.l.j.j.l.l.l.l.k.l.~./.|. XU.z X ",
"O 9 ' 0.7.0.a.l.l.l.l.l.l.l.l.l.l.l.j.l.l.l.l.l.l.a.f.f.f.-.9 X ",
"+ < G P I ' 8.s.s.a.j.l.l.l.l.l.l.l.l.j.a.a.a.i.a.8.' P P G < X ",
"%X%X< 9 < i ' <.<.0.a.l.l.l.l.l.l.l.l.a.0.<.6.6.6.*.i < 9 < %X%X",
"%X%X+ & 2 v [ w.q.e.h.i.i.i.i.i.s.s.a.8.*.P P U O.I < o X + %X%X",
"%X%XX 2 N N.C.D.D.B.e.6.2.<.<.<.<.<.6.*.i < < e H H % . %X%X%X%X",
"%X%XO 5 b.K.J.J.K.D.-.:.:.w.:.:.:.w.q.[ q $ $ e J K i 9 %X%X%X%X",
"%X%XO 5 b.K.K.J.K.L.C.Z.Z.Z.C.C.C.C.D.-._ C C J Q 3.*.L 9 O %X%X",
"%X%XO 5 b.I.K.J.J.I.T.T.P.P.T.E.E.T.P.S.+.Y Y @.@.3.4.U w + %X%X",
"%X%X# 5 b.I.K.J.J.W.].'.W.W.'..XXX`.W.S.,.3.@.@.E Y R J 9 @ %X%X",
"%X%XO 4 B N.L.K.W._.oXXXE.R..X#X#XoX_.U.t.5.5.4.E T J D % O %X%X",
"%X%X%X%X2 x N._.].oX@XXXE.E..X$X#XOXOX}.f.5.5.4.4.] e % %X%X%X%X",
"%X%X%X%XX 2 B m.Q.{.@XXXE.E..X$X#XOX.X!.r.@.e.e.O.L < O %X%X%X%X",
"%X%X%X%X%X%X5 z { V.{..XE.E..X$X#X[.V.X._ X.B.=.n , %X%X%X%X%X%X",
"%X%X%X%X%X%XX - f | H.W.F.G.).)._.G.| ( }  .c.B 4 . %X%X%X%X%X%X",
"%X%X%X%X%X%XX 7 A ^ b c M } v. .c b ^ o.v.V x 4 %X%X%X%X%X%X%X%X",
"%X%X%X%X%X%X+ 8 ^ ^ - = f ( ( f * - F #.V.N.5 X %X%X%X%X%X%X%X%X",
"%X%X%X%X%X%X+ , ! ! * - F ) ) ^ - * f | A.b.5 X %X%X%X%X%X%X%X%X",
"%X%X%X%X%X%X+ > a d 6 w A F F Z = * h { ..B 5 @ %X%X%X%X%X%X%X%X",
"%X%X%X%X%X%X%X%X; , d d 8 7 8 = # > h j s 3 %X%X%X%X%X%X%X%X%X%X",
"%X%X%X%X%X%X%X%XX > g g > # O O & = g h : X %X%X%X%X%X%X%X%X%X%X"
};
