/* XPM */
static char *result[] = {
/* columns rows colors chars-per-pixel */
"32 32 194 2 ",
"   c #060D0D",
".  c #071116",
"X  c #0C1415",
"o  c #061418",
"O  c #0D1619",
"+  c #0D1919",
"@  c #0A1817",
"#  c #101919",
"$  c #371F1D",
"%  c #39231F",
"&  c #141F21",
"*  c #2C1E24",
"=  c #3C1F24",
"-  c #2D2227",
";  c #2F2228",
":  c #3C2223",
">  c #312329",
",  c #362724",
"<  c #3D3224",
"1  c #3E3C2C",
"2  c #2C3435",
"3  c #2E3838",
"4  c #333B3C",
"5  c #242F32",
"6  c #452924",
"7  c #443426",
"8  c #493727",
"9  c #433E2C",
"0  c #5E3D2F",
"q  c #472832",
"w  c #5D2F3E",
"e  c #443C30",
"r  c #693B2D",
"t  c #643728",
"y  c #6C262F",
"u  c #45412E",
"i  c #48422E",
"p  c #434235",
"a  c #68492E",
"s  c #72623F",
"d  c #6E3345",
"f  c #713547",
"g  c #753649",
"h  c #7A3548",
"j  c #6B2D40",
"k  c #3C4446",
"l  c #3F484A",
"z  c #464848",
"x  c #51524E",
"c  c #726340",
"v  c #5C686B",
"b  c #636D6F",
"n  c #6B777A",
"m  c #9E392A",
"M  c #9D303F",
"N  c #883031",
"B  c #885C35",
"V  c #A84B32",
"C  c #B24A32",
"Z  c #B55235",
"A  c #956139",
"S  c #98633A",
"D  c #A56C3B",
"F  c #A6683B",
"G  c #B66E3F",
"H  c #DD5B39",
"J  c #CD5337",
"K  c #E25E3C",
"L  c #DE653E",
"P  c #C16A3E",
"I  c #8E3C54",
"U  c #873B52",
"Y  c #913D56",
"T  c #943F58",
"R  c #85384F",
"E  c #B93246",
"W  c #D3354A",
"Q  c #DC354B",
"!  c #E43C4C",
"~  c #96475F",
"^  c #B84442",
"/  c #A25445",
"(  c #967E4E",
")  c #BC7643",
"_  c #B57E46",
"`  c #B87F45",
"'  c #A57954",
"]  c #B66341",
"[  c #965B6E",
"{  c #875B6A",
"}  c #A05E73",
"|  c #B05E72",
" . c #AD5B6F",
".. c #9F6578",
"X. c #B0606F",
"o. c #A46B7E",
"O. c #CC4C57",
"+. c #E64B4C",
"@. c #EC504E",
"#. c #C97844",
"$. c #D16F4C",
"%. c #E56A47",
"&. c #ED7B4D",
"*. c #E37948",
"=. c #F27F50",
"-. c #98804E",
";. c #BB9B5C",
":. c #BA9356",
">. c #B88148",
",. c #AF8B6E",
"<. c #B7A274",
"1. c #DF974F",
"2. c #C68F5F",
"3. c #C88F5E",
"4. c #DE9851",
"5. c #DF9750",
"6. c #D5885F",
"7. c #EA8248",
"8. c #F2874B",
"9. c #F1934D",
"0. c #E29A53",
"q. c #E89F56",
"w. c #FA9952",
"e. c #F79850",
"r. c #DAA45C",
"t. c #C7A35E",
"y. c #E4A45A",
"u. c #CA9161",
"i. c #C79060",
"p. c #D59A63",
"a. c #E48D6D",
"s. c #C7A460",
"d. c #CBA762",
"f. c #ECB666",
"g. c #EDB768",
"h. c #E6BB6C",
"j. c #EDBA6A",
"k. c #F4BC6A",
"l. c #E4AA75",
"z. c #EDBD70",
"x. c #E2AC64",
"c. c #EFC16E",
"v. c #F2C36F",
"b. c #F1C471",
"n. c #FACB74",
"m. c #F6C873",
"M. c #7B8688",
"N. c #838E90",
"B. c #8D999C",
"V. c #979896",
"C. c #858C8C",
"Z. c #B48D9D",
"A. c #A69E92",
"S. c #A89E91",
"D. c #AF9989",
"F. c #A7A195",
"G. c #A49AA3",
"H. c #99A6AA",
"J. c #9DAAAE",
"K. c #98A3A5",
"L. c #9CABB1",
"P. c #A0ACAF",
"I. c #B8B3A5",
"U. c #A1ADB0",
"Y. c #A6B5BA",
"T. c #AAB7BA",
"R. c #ABBABD",
"E. c #A7B4B7",
"W. c #B7B2B1",
"Q. c #C3A5B1",
"!. c #D5B4B0",
"~. c #EECA86",
"^. c #F3D495",
"/. c #E7D9B9",
"(. c #ECD9AC",
"). c #C1B9C1",
"_. c #BBCACE",
"`. c #BECDD3",
"'. c #D1CAD3",
"]. c #C3D2D7",
"[. c #C7D6DA",
"{. c #D6D5DC",
"}. c #DACFC1",
"|. c #E6DED2",
" X c #ECE9DA",
".X c #D1DFE2",
"XX c #D2E1E5",
"oX c #D9E8EC",
"OX c #DBECF2",
"+X c #E9EEE4",
"@X c #E6F5F9",
"#X c #E6F6F9",
"$X c #E2EBF0",
"%X c None",
/* pixels */
"%X%X%X%X%X%X%X%X%X%X%X%X%X%XO O O O %X%X%X%X%X%X%X%X%X%X%X%X%X%X",
"%X%X%X%X%X%X%X%X%X%X%X%X%X%X9 i u 9 %X%X%X%X%X%X%X%X%X%X%X%X%X%X",
"%X%X%X%X%X%X%X%X%X%XO o . 9 -.t.;.-.9 . . O %X%X%X%X%X%X%X%X%X%X",
"%X%X%X%X%X%X%X%X%X%X9 i 9 c d.n.n.d.c 9 u 9 %X%X%X%X%X%X%X%X%X%X",
"%X%X%X%X%X%XO . . 1 ( ;.;.s.h.b.n.h.t.;.;.( 9 . . X %X%X%X%X%X%X",
"%X%X%X%X%X%Xu u 9 s d.n.m.m.b.b.b.b.m.m.n.d.s p z z %X%X%X%X%X%X",
"%X%X%X%X. 1 ( ;.;.t.h.b.m.b.b.b.b.b.b.m.m.h.t.<.I.B.k   %X%X%X%X",
"%X%X%X%X1 s d.n.m.m.b.b.b.b.b.b.b.b.b.b.b.v.v.^.+X`.n k %X%X%X%X",
"%X%X. 1 ( d.h.m.b.b.b.b.h.b.b.b.b.b.b.b.c.v.b.^. XOX`.B.k   %X%X",
"%X%X1 s d.n.b.b.b.b.b.b.b.b.b.b.b.b.b.b.b.b.b.~./.+X#X`.n k %X%X",
"O u ( d.h.m.b.v.b.b.b.b.b.b.b.b.b.b.b.b.b.b.b.b.~.(.+XOX`.B.l X ",
"O i :.k.k.j.v.b.b.b.b.c.b.b.b.b.b.b.c.b.b.b.b.v.v.~./.|. XI.z X ",
"O 7 _ q.q.y.j.b.b.b.b.v.b.b.b.b.b.c.b.b.b.b.b.b.v.j.l.l.l.,.7 X ",
"+ < B D D _ r.f.f.g.v.v.b.b.b.b.b.b.b.h.j.g.j.j.j.r.>.D D B < X ",
"%X%X< 7 < a ` 0.4.r.j.b.b.b.b.b.b.b.b.j.y.4.0.0.0.>.a < 7 < %X%X",
"%X%X+ & 5 x ' 2.u.p.x.f.f.f.f.f.f.f.j.r.>.D D G #.F < . o + %X%X",
"%X%XX 2 v C.V.F.F.D.p.4.4.4.4.4.4.0.0._ a , < t Z V : X %X%X%X%X",
"%X%X# 4 M.U.J.H.J.F.,.2.3.2.2.2.i.u.3.' 0 $ - t C Z a 7 %X%X%X%X",
"%X%XX 4 M.U.J.H.J.P.A.A.S.S.A.A.A.A.F.,./ m m V $.7.P S 7 O %X%X",
"%X%XX 4 M.P.J.H.K.H.T.Y.L.L.E.R.R.Y.L.A.$.H H %.*.7.9.G 7 # %X%X",
"%X%X# 4 M.U.L.H.K.E.].].Y.E.].XXXX`.Y.S.$.8.7.*.L H L V 6 + %X%X",
"%X%XX 4 b N.K.L.T._.oXXXT.T..X@X@XoX_.I.l.9.9.7.L J C N % # %X%X",
"%X%X%X%X3 x M.R.[.oX$XXXT.T.XX#X@XOXoX}.l.8.9.9.8.G r % %X%X%X%X",
"%X%X%X%X@ 3 b B.!.{.$XXXR.R.XX#X@XOX{.!.a.&.&.*.P S < O %X%X%X%X",
"%X%X%X%X%X%X4 z { Z..XoXR.R.XX#X#X{.Z.X.O.+.@.^ a 7 %X%X%X%X%X%X",
"%X%X%X%X%X%XX * y } Q.).G.G.Q.'.'.Q.} E W ! +.^ r < %X%X%X%X%X%X",
"%X%X%X%X%X%XX * j ~ [ o.[ [ o.o.o.| W W Q +.%.*.#.A 7 O %X%X%X%X",
"%X%X%X%X%X%X; q h Y Y U Y Y I R h h I E W @.=.e.w.) 8 O %X%X%X%X",
"%X%X%X%X# ; w h U Y I I Y Y Y h q - % y E @.=.w.w.) 8 O %X%X%X%X",
"%X%X%X%X# > f ~ Y I ~ R h f f w - o o = N E ] ) ) A 7 O %X%X%X%X",
"%X%X%X%X# > f T Y Y ~ g q ; ; - %X%X%X%X6 6 7 7 8 7 %X%X%X%X%X%X",
"%X%X%X%X# ; f Y Y I I f - + # # %X%X%X%X+ + + O O + %X%X%X%X%X%X"
};
