/* XPM */
static char *result[] = {
/* columns rows colors chars-per-pixel */
"32 32 149 2 ",
"   c #071116",
".  c #0B1415",
"X  c #0C1817",
"o  c #071318",
"O  c #0D1618",
"+  c #0D1919",
"@  c #111919",
"#  c #1C201C",
"$  c #3D231E",
"%  c #342B1F",
"&  c #2C1F26",
"*  c #1A2424",
"=  c #2D2127",
"-  c #2F2229",
";  c #302127",
":  c #3D2520",
">  c #3A2F21",
",  c #3B3124",
"<  c #3E3B2B",
"1  c #323D3F",
"2  c #63291E",
"3  c #422621",
"4  c #433426",
"5  c #493727",
"6  c #433E2C",
"7  c #472933",
"8  c #482832",
"9  c #5C2F3D",
"0  c #5F3D31",
"q  c #562C2D",
"w  c #6D382B",
"e  c #45412E",
"r  c #48422E",
"t  c #654A2D",
"y  c #674D30",
"u  c #72623F",
"i  c #323F41",
"p  c #6E3245",
"a  c #753649",
"s  c #79374B",
"d  c #7C3647",
"f  c #3D4749",
"g  c #424A4B",
"h  c #5B4946",
"j  c #585349",
"k  c #444F51",
"l  c #465051",
"z  c #654D54",
"x  c #667274",
"c  c #863729",
"v  c #A13E37",
"b  c #8C4134",
"n  c #865A34",
"m  c #8C5B35",
"M  c #A6402E",
"N  c #A9412E",
"B  c #B5412C",
"V  c #A3483F",
"C  c #97623A",
"Z  c #A66C3A",
"A  c #C0443F",
"S  c #D04932",
"D  c #8D3B53",
"F  c #913E56",
"G  c #933F58",
"H  c #933B49",
"J  c #8F4A47",
"K  c #8F4259",
"L  c #AE4E5C",
"P  c #967E4E",
"I  c #BD7643",
"U  c #B47D45",
"Y  c #914F63",
"T  c #92576B",
"R  c #94586B",
"E  c #915065",
"W  c #A45F69",
"Q  c #996779",
"!  c #AA6064",
"~  c #D65C5D",
"^  c #C77844",
"/  c #D27D4D",
"(  c #D87254",
")  c #E37A49",
"_  c #C46573",
"`  c #98804E",
"'  c #B98148",
"]  c #BB9B5C",
"[  c #BA9356",
"{  c #B08965",
"}  c #C7905F",
"|  c #DE9851",
" . c #E29B53",
".. c #FD9952",
"X. c #DBA55D",
"o. c #E9A85C",
"O. c #C79060",
"+. c #CE9665",
"@. c #C7A460",
"#. c #CBA762",
"$. c #D9A06F",
"%. c #EBB566",
"&. c #E7BC6D",
"*. c #EEBA69",
"=. c #F1BD6B",
"-. c #F4C16E",
";. c #F1C471",
":. c #F6C873",
">. c #FACB74",
",. c #957985",
"<. c #AE7E84",
"1. c #998E96",
"2. c #988F98",
"3. c #859295",
"4. c #909796",
"5. c #959498",
"6. c #95999D",
"7. c #A68F96",
"8. c #A79E90",
"9. c #A99F92",
"0. c #AB969C",
"q. c #909CA0",
"w. c #A69CA4",
"e. c #9CA0A4",
"r. c #97A5AA",
"t. c #9AA7AA",
"y. c #9BA9AC",
"u. c #ACA0A5",
"i. c #B7AEA0",
"p. c #A2AFB3",
"a. c #A6B5B8",
"s. c #A8B5B8",
"d. c #ADBABE",
"f. c #B1B8BC",
"g. c #C7C3BB",
"h. c #D4CBBF",
"j. c #ADBCC0",
"k. c #B1BEC2",
"l. c #C5BCC5",
"z. c #AFC0C3",
"x. c #B6C2C6",
"c. c #B7C6CA",
"v. c #B8C6CA",
"b. c #C7D6D9",
"n. c #CEDEE1",
"m. c #D3E2E7",
"M. c #D4E3E9",
"N. c #DCE9ED",
"B. c None",
/* pixels */
"B.B.B.B.B.B.B.B.B.B.B.B.B.B.+ O O O B.B.B.B.B.B.B.B.B.B.B.B.B.B.",
"B.B.B.B.B.B.B.B.B.B.B.B.B.B.e r r e B.B.B.B.B.B.B.B.B.B.B.B.B.B.",
"B.B.B.B.B.B.B.B.B.B.X o   6 ` ] ] ` 6   o O B.B.B.B.B.B.B.B.B.B.",
"B.B.B.B.B.B.B.B.B.B.e e e u #.>.>.#.u 6 e 6 B.B.B.B.B.B.B.B.B.B.",
"B.B.B.B.B.B.O o   < ` ] [ @.&.;.>.&.#.] ] P 6   o O B.B.B.B.B.B.",
"B.B.B.B.B.B.6 e < u #.>.:.;.;.;.;.;.;.>.>.#.u 6 e 6 B.B.B.B.B.B.",
"B.B.B.B.  < P ] ] @.;.;.;.;.;.;.;.;.;.;.;.&.@.] ] P <   B.B.B.B.",
"B.B.B.B.< u #.>.:.;.;.;.;.;.;.&.;.;.;.;.;.;.;.>.>.#.u 6 B.B.B.B.",
"B.B.  < ` @.-.;.;.;.;.;.;.;.;.;.;.;.;.-.;.;.;.;.;.&.#.P 6   B.B.",
"B.B.< u @.:.;.;.;.;.;.;.;.;.;.;.;.;.;.;.;.;.;.;.;.;.>.#.u < B.B.",
"O 6 P #.-.;.;.;.;.;.;.;.;.;.;.;.;.;.;.;.;.;.;.;.;.;.;.&.#.P 6 O ",
"O r [ -.:.;.;.;.;.;.;.;.;.;.;.;.;.;.;.;.;.;.;.;.;.;.;.:.-.[ e O ",
"O 5 U o.=.:.;.;.;.;.;.;.;.;.;.;.;.;.;.;.;.;.;.;.;.-.;.-.o.U 5 O ",
"+ , n U $.*.%.*.-.;.;.;.;.;.;.;.;.;.;.;.;.;.;.;.-.*.*.$.' m , + ",
"B.B., y '  . .o.&.;.;.;.;.;.;.;.;.;.;.;.:.;.:.-.o.|  .' y > B.B.",
"B.B.o , n Z Z ' X.%.%.%.%.%.%.%.%.%.%.X.%.%.%.X.Z Z Z n , o B.B.",
"B.B.B.B.> % > t U  . .| | | |  .| | | | |  .| U t > , > B.B.B.B.",
"B.B.B.B.g f 1 j { $.+.O.} O.O.O.} } } } } +.$.{ j 1 f f B.B.B.B.",
"B.B.. g 6.p.3.4.g.h.i.8.8.8.9.9.9.8.8.8.8.i.h.g.4.3.p.6.g . B.B.",
"B.B.O l x.N.f.d.m.m.j.r.t.t.y.y.y.y.y.r.t.d.M.m.d.d.N.x.l . B.B.",
"B.B.O l x.N.k.d.m.m.j.r.t.t.t.t.y.r.t.t.r.d.M.m.j.j.N.z.l   B.B.",
"B.B.. g 6.f.k.v.b.b.s.r.t.t.t.t.y.y.t.t.t.a.b.b.c.j.z.4.h $ B.B.",
"B.B.B.B.g x k.n.v.s.y.t.t.t.t.t.y.r.t.t.t.y.a.v.n.j.x y b c $ + ",
"B.B.B.B.. i 3.f.0.7.e.y.t.y.y.y.y.y.t.y.t.e.5.w.l.u.z 2 B N 3 + ",
"B.B.B.B.@ = f h L _ 0.p.y.y.y.y.y.t.t.t.y.5.Q R Q ! V B S M 3 X ",
"B.B.B.B.@ @ > w B ~ <.2.2.2.1.1.2.1.1.5.2.,.Y D D F v v N c $ + ",
"B.B.B.B.O > m ^ ) ( W T T T T R R R E T T E K D D d q 3 3 : B.B.",
"B.B.B.B.O 5 I ..../ J p p p p p p d D F F D F K G a & O + + B.B.",
"B.B.B.B.+ 5 I ....^ 0 = = ; ; = = 8 d F D D D D K a - + B.B.B.B.",
"B.B.B.B.O , C I I C 4 O + @ @ + X = 9 a D G K D s 9 = @ B.B.B.B.",
"B.B.B.B.B.B.4 5 5 4 B.B.B.B.B.B.B.B.= 8 s K K s 8 = B.B.B.B.B.B.",
"B.B.B.B.B.B.+ + + O B.B.B.B.B.B.B.B.X = p G G p = X B.B.B.B.B.B."
};
