/* XPM */
static char *result[] = {
/* columns rows colors chars-per-pixel */
"32 32 238 2 ",
"   c #070F0F",
".  c #061015",
"X  c #071116",
"o  c #0A1314",
"O  c #091317",
"+  c #0D1414",
"@  c #0E1717",
"#  c #0F1717",
"$  c #0D1917",
"%  c #071318",
"&  c #0D1518",
"*  c #0D1618",
"=  c #0D1619",
"-  c #0E1719",
";  c #0E1918",
":  c #0F1918",
">  c #0F1919",
",  c #0D1A19",
"<  c #0E1A19",
"1  c #101919",
"2  c #16191A",
"3  c #3A181C",
"4  c #261D21",
"5  c #281F23",
"6  c #172123",
"7  c #2E2227",
"8  c #2D2228",
"9  c #2E2228",
"0  c #3B2F20",
"q  c #392F23",
"w  c #322329",
"e  c #372328",
"r  c #3F3223",
"t  c #3A3024",
"y  c #3C3124",
"u  c #3E3224",
"i  c #3D3B2B",
"p  c #3E3B2B",
"a  c #3F3C2C",
"s  c #303B3B",
"d  c #323C3C",
"f  c #323C3E",
"g  c #343C3D",
"h  c #411F23",
"j  c #422227",
"k  c #453928",
"l  c #403D2C",
"z  c #423F2D",
"x  c #433F2D",
"c  c #443F2D",
"v  c #472731",
"b  c #472933",
"n  c #582D3A",
"m  c #5B2F3E",
"M  c #45412E",
"N  c #48402D",
"B  c #48432F",
"V  c #64492C",
"C  c #674D30",
"Z  c #71623F",
"A  c #72623F",
"S  c #72633F",
"D  c #313D40",
"F  c #6F3547",
"G  c #703547",
"H  c #743649",
"J  c #77374A",
"K  c #783549",
"L  c #79364A",
"P  c #78374B",
"I  c #394646",
"U  c #3E4647",
"Y  c #484247",
"T  c #41494A",
"R  c #414A4B",
"E  c #475051",
"W  c #64464B",
"Q  c #635E54",
"!  c #7A515F",
"~  c #647273",
"^  c #697374",
"/  c #8F2934",
"(  c #855A35",
")  c #885C36",
"_  c #A56B3A",
"`  c #A86E3C",
"'  c #833546",
"]  c #873B52",
"[  c #883A51",
"{  c #8D3952",
"}  c #8E3B54",
"|  c #8F3B54",
" . c #913C55",
".. c #903D56",
"X. c #903E56",
"o. c #913E56",
"O. c #913E57",
"+. c #983D56",
"@. c #943F58",
"#. c #A43342",
"$. c #AE3D4D",
"%. c #A23B53",
"&. c #A63E56",
"*. c #C73B52",
"=. c #90435A",
"-. c #947D4D",
";. c #967E4D",
":. c #967F4E",
">. c #977F4E",
",. c #B07B46",
"<. c #B57D44",
"1. c #B77E45",
"2. c #914F64",
"3. c #935166",
"4. c #955A6D",
"5. c #A85C6E",
"6. c #9F6579",
"7. c #926978",
"8. c #98804E",
"9. c #B98048",
"0. c #B98148",
"q. c #A7805C",
"w. c #BA9356",
"e. c #B9995B",
"r. c #BB9B5C",
"t. c #BE9D5D",
"y. c #CA915F",
"u. c #DE9851",
"i. c #E19951",
"p. c #E29A52",
"a. c #E39B54",
"s. c #E59D55",
"d. c #DAA35B",
"f. c #DDA65E",
"g. c #E5A55B",
"h. c #EDAA5D",
"j. c #C79060",
"k. c #C99160",
"l. c #C7A460",
"z. c #CAA661",
"x. c #CAA662",
"c. c #CAA762",
"v. c #CBA762",
"b. c #CCA762",
"n. c #EBB566",
"m. c #ECB666",
"M. c #EDB767",
"N. c #E6BB6C",
"B. c #E7BC6D",
"V. c #E7BD6D",
"C. c #EEB868",
"Z. c #EFB969",
"A. c #EDBB6A",
"S. c #EEBB6A",
"D. c #F1BD6B",
"F. c #F0C16F",
"G. c #F7C16D",
"H. c #F0C370",
"J. c #F1C471",
"K. c #F1C571",
"L. c #F2C471",
"P. c #F2C571",
"I. c #F3C571",
"U. c #F1C572",
"Y. c #F1C672",
"T. c #F5C570",
"R. c #F4C672",
"E. c #F4C772",
"W. c #F5C772",
"Q. c #F6C873",
"!. c #F8CA74",
"~. c #F9CA74",
"^. c #FACB74",
"/. c #FCCD75",
"(. c #967A86",
"). c #788486",
"_. c #798487",
"`. c #7A8587",
"'. c #80888B",
"]. c #908D93",
"[. c #869397",
"{. c #8F9C9E",
"}. c #969198",
"|. c #98959B",
" X c #919C9E",
".X c #A79D8F",
"XX c #A89E91",
"oX c #A99F92",
"OX c #ABA79E",
"+X c #A69CA4",
"@X c #AE9EA6",
"#X c #99A0A4",
"$X c #99A5A8",
"%X c #9AA6A9",
"&X c #98A6AA",
"*X c #99A6AA",
"=X c #99A7AB",
"-X c #9BA7AA",
";X c #9AA7AB",
":X c #99A7AC",
">X c #9BA9AB",
",X c #9CA9AC",
"<X c #9DA9AC",
"1X c #9CABAD",
"2X c #9EAAAD",
"3X c #9DABAE",
"4X c #9EABAE",
"5X c #9DABB0",
"6X c #A5B4B9",
"7X c #A7B5B8",
"8X c #A7B5B9",
"9X c #A8B5B8",
"0X c #AAB6B9",
"qX c #ADBABD",
"wX c #AEBABD",
"eX c #AEBCBF",
"rX c #B1B9B9",
"tX c #B0BDC0",
"yX c #B0BEC1",
"uX c #B0BFC1",
"iX c #B2BFC2",
"pX c #B3BFC3",
"aX c #C5BCC5",
"sX c #B6C3C6",
"dX c #B7C5C8",
"fX c #B8C5C9",
"gX c #B8C7CA",
"hX c #B8C6CB",
"jX c #C5D3D6",
"kX c #C4D2D7",
"lX c #C9D8DC",
"zX c #CAD9DC",
"xX c #CDDDE0",
"cX c #CFDDE1",
"vX c #D3E1E4",
"bX c #D5E3E6",
"nX c #DAE8EC",
"mX c None",
/* pixels */
"mXmXmXmXmXmXmXmXmXmXmXmXmXmX& & & & mXmXmXmXmXmXmXmXmXmXmXmXmXmX",
"mXmXmXmXmXmXmXmXmXmXmXmXmXmXx B B x mXmXmXmXmXmXmXmXmXmXmXmXmXmX",
"mXmXmXmXmXmXmXmXmXmX& O X l 8.t.t.8.l X O & mXmXmXmXmXmXmXmXmXmX",
"mXmXmXmXmXmXmXmXmXmXx M c A b././.b.A c M x mXmXmXmXmXmXmXmXmXmX",
"mXmXmXmXmXmX& O X a >.r.e.l.N.Q.Q.N.l.e.r.>.a X O & mXmXmXmXmXmX",
"mXmXmXmXmXmXx M c A b.^.!.E.L.H.H.L.E.!.^.b.A c M x mXmXmXmXmXmX",
"mXmXmXmX. p ;.r.e.l.N.W.W.I.J.H.H.J.I.W.W.N.l.e.r.;.p . mXmXmXmX",
"mXmXmXmXp Z x.^.!.E.L.H.H.J.J.J.J.J.J.H.H.L.E.!.^.x.Z p mXmXmXmX",
"mXmX. i -.z.B.W.W.I.J.H.H.J.J.J.J.J.J.H.H.J.I.W.W.B.z.-.i . mXmX",
"mXmXa S v.~.R.H.H.J.J.J.J.J.J.J.J.J.J.J.J.J.J.H.H.R.~.v.S a mXmX",
"& z :.c.V.R.P.H.H.J.J.J.J.J.J.J.J.J.J.J.J.J.J.H.H.P.R.V.c.:.z & ",
"* N w.G.T.K.J.J.J.H.H.J.J.J.J.J.J.J.J.J.J.H.H.J.J.J.K.T.G.w.N * ",
"= k ,.h.D.Y.U.K.J.H.H.J.J.J.J.J.J.J.J.J.J.H.H.J.K.U.Y.D.h.,.k = ",
"- y ( 9.f.Z.C.S.F.K.K.J.J.J.J.J.J.J.J.J.J.K.K.F.S.C.Z.f.9.( y - ",
"mXmXq C 0.s.a.g.A.Y.U.K.K.K.K.K.K.K.K.K.K.U.Y.A.g.a.s.0.C q mXmX",
"mXmX% t ) ` _ <.d.M.m.n.n.n.n.n.n.n.n.n.n.m.M.d.<._ ` ) t % mXmX",
"mXmXmXmXu r 0 V 1.p.i.u.u.u.u.u.u.u.u.u.u.i.p.1.V 0 r u mXmXmXmX",
"mXmXmXmXo 6 D Q q.y.k.j.j.j.j.j.j.j.j.j.j.k.y.q.Q D 6 o mXmXmXmX",
"mXmXmXmX  f [.rXOX.XXXoXoXoXoXoXoXoXoXoXoXXX.XOXrX[.f   mXmXmXmX",
"mXmXmXmXU ^ pXcXhX6X5X=X=X:X:X:X:X:X:X=X=X5X6XhXcXpX^ U mXmXmXmX",
"mXmX+ T  XiXtXfXlXkX8X&X*X;X;X;X;X;X;X*X&X8XkXlXfXtXiX XT + mXmX",
"mXmX+ E sXnXqX0XvXbXwX$X$X-X-X-X-X-X-X$X$XwXbXvX0XqXnXsXE + mXmX",
"mXmX+ E sXnXqX0XvXbXwX$X$X-X-X-X-X-X-X$X$XwXbXvX0XqXnXsXE + mXmX",
"mXmX+ R {.yXeXdXzXjX9X$X%X-X-X-X-X-X-X%X$X9XjXzXdXeXyX{.R + mXmX",
"mXmXmXmXI ~ uXxXgX7X4X%X%X-X-X-X-X-X-X%X%X4X7XgXxXuX~ I mXmXmXmX",
"mXmXmXmX3 W @XaX+X}.#X>X,X<X<X,X,X<X<X,X>X#X}.+XaX@XW 3 mXmXmXmX",
"mXmX, h / $.5.6.4.7.|.1X3X2X2X2X2X2X2X3X1X|.7.4.6.5.$./ h , mXmX",
"mXmX< j #.*.%.{ { 2.(.].'.)._.`.`._.).'.].(.2.{ { %.*.#.j < mXmX",
"mXmX> e ' &.+.| } =.3.! Y s d g g d s Y ! 3.=.} | +.&.' e > mXmX",
"mXmX1 7 m F F J ] o. .K v 4 2 # # 2 4 v K  .o.] J F F m 7 1 mXmX",
"mXmXmXmX8 9 7 b P o...[ L n 5 @ @ 5 n L [ ..o.P b 7 9 8 mXmXmXmX",
"mXmXmXmX1 ; $ 7 G O.X.O.@.H w : : w H @.O.X.O.G 7 $ ; 1 mXmXmXmX"
};
