/* XPM */
static char *result[] = {
/* columns rows colors chars-per-pixel */
"32 32 93 2 ",
"   c #060F12",
".  c #0C1516",
"X  c #0C1719",
"o  c #0E1819",
"O  c #2F2922",
"+  c #352B23",
"@  c #3F2F24",
"#  c #3E3E34",
"$  c #453124",
"%  c #453528",
"&  c #4E382A",
"*  c #51392B",
"=  c #5C3D2B",
"-  c #434136",
";  c #474539",
":  c #484639",
">  c #684531",
",  c #7D5036",
"<  c #71654E",
"1  c #706751",
"2  c #875337",
"3  c #865439",
"4  c #8A5639",
"5  c #975D3E",
"6  c #9A5E3E",
"7  c #A35E38",
"8  c #9E613F",
"9  c #A1613F",
"0  c #AE643D",
"q  c #B16036",
"w  c #B1643B",
"e  c #9F6140",
"r  c #A26240",
"t  c #AD6640",
"y  c #B06740",
"u  c #B16840",
"i  c #BE6C41",
"p  c #B27147",
"a  c #BD7045",
"s  c #C36E40",
"d  c #C77042",
"f  c #CA7142",
"g  c #D57543",
"h  c #DA7742",
"j  c #DE7943",
"k  c #E67B43",
"l  c #E87D44",
"z  c #948466",
"x  c #958668",
"c  c #B5926A",
"v  c #B6A27B",
"b  c #B9A37D",
"n  c #DB8552",
"m  c #E78048",
"M  c #EC8148",
"N  c #E78952",
"B  c #EB8B52",
"V  c #E79058",
"C  c #E99159",
"Z  c #C8A677",
"A  c #C7A778",
"S  c #CCAA79",
"D  c #ECA16A",
"F  c #EDB16F",
"G  c #FCB46A",
"H  c #E7A975",
"J  c #ECAC75",
"K  c #EDB270",
"L  c #F7BB77",
"P  c #F9B973",
"I  c #FCBE79",
"U  c #C7AF85",
"Y  c #C8AF84",
"T  c #C8B085",
"R  c #ECBB86",
"E  c #EDC28D",
"W  c #F4C283",
"Q  c #F8C585",
"!  c #F2C68B",
"~  c #F2C88F",
"^  c #FACC8F",
"/  c #E4C795",
"(  c #E4C896",
")  c #EECD97",
"_  c #EECE9A",
"`  c #F1C990",
"'  c #FACE91",
"]  c #F0CE98",
"[  c #EDD19D",
"{  c #F2D39E",
"}  c #F8D49D",
"|  c #F6D6A0",
" . c None",
/* pixels */
" . . . . . . . . . . . . . . . . . . . . . . . . . . . . . . . .",
" . . . . . . . . . . . . . . . . . . . . . . . . . . . . . . . .",
" . . . . . . . . . . . .. o . X X X X .  . . . . . . . . . . . .",
" . . . . . . . . . . . .- : : : : : ; -  . . . . . . . . . . . .",
" . . . . . . . .. .   # x v b v v b b x - . . X  . . . . . . . .",
" . . . . . . . .- ; - < S ' ' ^ ^ ' ' S < - - -  . . . . . . . .",
" . . . . . .  # x v v A F G G G G G G K A v b z #    . . . . . .",
" . . . . . .# 1 T | { ' I G G G G G G P Q ' | U 1 #  . . . . . .",
" . . . .. - z Y / { { ] ` ! ! ! ! ! ! W P I ' / U z - .  . . . .",
" . . . .. : b | { _ _ ] ` E ! ` _ [ [ ! G G ! { | b : .  . . . .",
" . . . .. : b } { _ [ ` L G G L ~ _ [ ! G G ! { | v ; .  . . . .",
" . . . .. ; v { { ) ~ W P G G L ) [ _ E G G ! [ | v ; .  . . . .",
" . . . .. ; v { [ ~ P P W ! ! ` ) _ _ ~ G G ! { { v : .  . . . .",
" . . . .. : b { [ ~ I G W ~ ! E ! ! ! W P L ~ [ { b : .  . . . .",
" . . . .. : b { { _ ~ R P G G G G G G P W ` _ ] { b : .  . . . .",
" . . . .. - c ! ] _ _ ) L G G G G G G P ` _ [ ] ! c - .  . . . .",
" . . . .o % p D E [ [ ) ~ ! ! E E ! ! ! ) [ [ ~ D p % X  . . . .",
" . . . .o $ w B K E ) [ [ [ [ [ [ [ [ [ [ ) E J B q $ o  . . . .",
" . . . .o $ q M B D E [ [ [ [ [ [ [ [ [ [ E D B M q $ o  . . . .",
" . . . .X $ 7 h k N H R R R R R R R R R R H n h k q $ o  . . . .",
" . . . .X + 3 s h k B V V V V V V V C C C n a i j q $ X  . . . .",
" . . . .O & 3 u g k k k k j k k k j h h g d t u d 0 = +  . . . .",
"o X X O > 3 5 u g k k k k k k k k h w w w 0 r r u 9 4 > O o X o ",
"+ + + * 4 r r u g k k k k k k l k h w r e r 9 8 9 r r 4 * + + + ",
", , , 4 6 r e t g k k l l k k k l g u 8 8 8 9 8 9 r 9 6 4 , , 3 ",
"t r r r r r t i h k l l k l k k h d 0 9 9 r r r r 9 8 r r r r r ",
" . . . . . .g g j k k k l l l h i u r 9 9 r r 8 r 8 8 r  . . . .",
" . . . . . .l l k k h g g g g d t e 8 e r r r e r r r r  . . . .",
" . . . .k k k l l j i t t u u u  . . . . . .r r r r  . . . . . .",
" . . . .k k h g g d u 8 8 8 8 e  . . . . . .r r r r  . . . . . .",
" . .l k k g i u y t  . . . . . . . . . . . . . .r e  . . . . . .",
" . .l l k g u e 8 8  . . . . . . . . . . . . . .r r  . . . . . ."
};
